<svg width="30" height="30" viewBox="0 0 30 30" fill="none" xmlns="http://www.w3.org/2000/svg">
<path d="M5.19783 11.298C5.28221 5.05371 10.3879 0 16.6519 0C22.9683 0 28.1069 5.13873 28.1069 11.4551C28.1069 14.5795 26.8238 17.5723 24.5735 19.7285V30H10.488V24.7266H5.19678V20.4297H1.89326L5.19783 11.298ZM6.95459 18.6719V22.9688H12.2458V28.2422H15.7729V12.334H8.7124V11.4551C8.7124 7.07725 12.274 3.51562 16.6519 3.51562C21.0297 3.51562 24.5913 7.07725 24.5913 11.4551V12.334H17.5308V28.2422H22.8157V18.9511L23.1091 18.689C25.1682 16.8496 26.3491 14.213 26.3491 11.4551C26.3491 6.10799 21.9989 1.75781 16.6519 1.75781C11.3048 1.75781 6.95459 6.10799 6.95459 11.4551V11.6092L4.39873 18.6719H6.95459ZM22.7712 10.5762C22.3432 7.58238 19.7621 5.27344 16.6519 5.27344C13.5416 5.27344 10.9605 7.58238 10.5325 10.5762H22.7712Z" fill="#1F4ACF"/>
</svg>
