<svg width="30" height="30" viewBox="0 0 30 30" fill="none" xmlns="http://www.w3.org/2000/svg">
<g clip-path="url(#clip0)">
<path d="M30 2.76715H16.6506C15.5338 2.76715 14.5893 3.52125 14.3004 4.54723H5.33379C3.21562 4.54723 1.52988 6.72633 1.24395 8.82457C1.21969 9.00358 1.20545 18.9942 1.20199 21.7264C0.464766 22.2848 0 23.1625 0 24.1614C0 25.855 1.34859 27.2329 3.04219 27.2329C4.43045 27.2329 5.6059 26.3068 5.98488 25.0403H9.83537C10.2144 26.3068 11.3899 27.2329 12.7781 27.2329C14.1935 27.2329 15.3878 26.2702 15.7421 24.9653H30V2.76715ZM5.33379 6.30504H14.209V8.82457H3.0293C3.2959 7.59528 4.28906 6.30504 5.33379 6.30504ZM3.04219 25.475C2.31779 25.475 1.72852 24.8857 1.72852 24.1614C1.72852 23.437 2.31785 22.8477 3.04219 22.8477C3.76652 22.8477 4.35586 23.437 4.35586 24.1614C4.35592 24.8858 3.76658 25.475 3.04219 25.475ZM12.7781 25.475C12.0538 25.475 11.4645 24.8857 11.4645 24.1614C11.4645 23.437 12.0538 22.8477 12.7781 22.8477C13.5025 22.8477 14.0918 23.437 14.0918 24.1614C14.0918 24.8858 13.5025 25.475 12.7781 25.475ZM28.2715 23.2076H15.6972C15.295 21.9796 14.1388 21.0899 12.7781 21.0899C11.3899 21.0899 10.2144 22.0159 9.83537 23.2825H5.98488C5.84174 22.8042 5.58504 22.3747 5.24607 22.0252L7.23902 18.4671C9.12879 18.89 10.9816 17.406 10.9816 15.4703C10.9816 13.7767 9.60375 12.3988 7.91016 12.3988C6.21656 12.3988 4.83867 13.7767 4.83867 15.4703C4.83867 16.3 5.16984 17.0533 5.70627 17.6065L3.71332 21.1646C3.45967 21.1079 3.20689 21.0865 2.95898 21.0949V10.5824H15.9668V5.20875C15.9668 4.83199 16.2738 4.52496 16.6506 4.52496H28.2715V23.2076ZM6.59648 15.4703C6.59648 14.7459 7.18582 14.1566 7.91016 14.1566C8.63449 14.1566 9.22383 14.7459 9.22383 15.4703C9.22383 16.1946 8.63449 16.7839 7.91016 16.7839C7.18582 16.7839 6.59648 16.1947 6.59648 15.4703Z" fill="#1F4ACF"/>
</g>
<defs>
<clipPath id="clip0">
<rect width="30" height="30" fill="white"/>
</clipPath>
</defs>
</svg>
