<svg width="96" height="102" viewBox="0 0 96 102" fill="none" xmlns="http://www.w3.org/2000/svg">
<path d="M7.30524 80.0539C8.00688 80.3845 8.54342 80.8391 8.91488 81.4177C9.28633 81.9963 9.49269 82.6989 9.49269 83.4842C9.49269 84.2694 9.28633 84.972 8.91488 85.5506C8.54342 86.1292 8.00688 86.5838 7.30524 86.9145C6.60361 87.2451 5.77816 87.3691 4.82889 87.3691H2.97162V90.1381H0V79.5992H4.82889C5.77816 79.5992 6.60361 79.7232 7.30524 80.0539ZM6.02579 84.6C6.35598 84.3521 6.47979 83.9388 6.47979 83.4842C6.47979 82.9882 6.3147 82.6163 6.02579 82.327C5.69561 82.0377 5.24162 81.9137 4.62253 81.9137H2.97162V85.0133H4.62253C5.24162 85.0133 5.69561 84.8894 6.02579 84.6Z" fill="#1F4ACF"/>
<path d="M17.293 82.7403C17.9946 83.3603 18.366 84.3108 18.366 85.592V90.1382H15.6833V89.105C15.2706 89.8902 14.4864 90.3035 13.2895 90.3035C12.6704 90.3035 12.0926 90.1795 11.6386 89.9729C11.1846 89.7662 10.8132 89.4356 10.6068 89.0637C10.3592 88.6917 10.2354 88.2784 10.2354 87.7825C10.2354 86.9972 10.5243 86.4186 11.1021 85.964C11.6799 85.5507 12.5879 85.344 13.8261 85.344H15.4357C15.3944 84.4761 14.8166 84.0628 13.7022 84.0628C13.3308 84.0628 12.9181 84.1455 12.5053 84.2695C12.0926 84.3935 11.7624 84.5588 11.4735 84.8068L10.5243 82.8643C10.9783 82.575 11.5148 82.327 12.1752 82.1617C12.8355 81.9964 13.4546 81.9137 14.115 81.9137C15.5595 81.8311 16.5913 82.1204 17.293 82.7403ZM14.9404 88.1957C15.1881 88.0304 15.3532 87.7825 15.477 87.4932V86.7906H14.2388C13.4133 86.7906 13.0006 87.0799 13.0006 87.6171C13.0006 87.8651 13.0832 88.0718 13.2895 88.2371C13.4959 88.4024 13.7435 88.4437 14.0737 88.4437C14.4039 88.4437 14.6928 88.3611 14.9404 88.1957Z" fill="#1F4ACF"/>
<path d="M25.7952 89.7663C25.5476 89.9316 25.2587 90.0142 24.9285 90.0969C24.5983 90.1795 24.2269 90.2209 23.8141 90.2209C22.7411 90.2209 21.9156 89.9729 21.3791 89.4356C20.8012 88.8983 20.5123 88.1544 20.5123 87.1212V84.3935H19.3154V82.2444H20.5123V80.1366H23.3601V82.2444H25.2174V84.3935H23.3601V87.1212C23.3601 87.4105 23.4427 87.6585 23.6078 87.8238C23.7729 87.9891 23.9792 88.0718 24.2269 88.0718C24.557 88.0718 24.846 87.9891 25.0936 87.8238L25.7952 89.7663Z" fill="#1F4ACF"/>
<path d="M32.3167 89.7663C32.0691 89.9316 31.7802 90.0142 31.45 90.0969C31.1198 90.1795 30.7483 90.2209 30.3356 90.2209C29.2625 90.2209 28.4371 89.9729 27.9005 89.4356C27.3227 88.8983 27.0338 88.1544 27.0338 87.1212V84.3935H25.8369V82.2444H27.0338V80.1366H29.8816V82.2444H31.7802V84.3935H29.9229V87.1212C29.9229 87.4105 30.0054 87.6585 30.1705 87.8238C30.3356 87.9891 30.542 88.0718 30.7896 88.0718C31.1198 88.0718 31.4087 87.9891 31.6563 87.8238L32.3167 89.7663Z" fill="#1F4ACF"/>
<path d="M41.4786 86.7492H35.5353C35.6591 87.1625 35.9068 87.4931 36.2369 87.6998C36.5671 87.9064 37.0211 88.0304 37.5577 88.0304C37.9291 88.0304 38.3006 87.9891 38.5895 87.8651C38.8784 87.7411 39.1673 87.5758 39.4562 87.3278L40.942 88.8983C40.1578 89.7662 39.0022 90.2208 37.4751 90.2208C36.5259 90.2208 35.7004 90.0555 34.9575 89.6836C34.2559 89.3116 33.678 88.8157 33.2653 88.1957C32.8526 87.5345 32.6875 86.8319 32.6875 86.0053C32.6875 85.22 32.8939 84.4761 33.2653 83.8562C33.6368 83.2362 34.1733 82.699 34.8749 82.3683C35.5766 81.9964 36.3195 81.8311 37.1862 81.8311C38.0117 81.8311 38.7546 81.9964 39.4149 82.327C40.0753 82.6576 40.6118 83.1536 40.9833 83.7735C41.3547 84.3935 41.5611 85.1787 41.5611 86.0466C41.5198 86.0879 41.5198 86.2946 41.4786 86.7492ZM36.0719 84.2281C35.7829 84.4761 35.5766 84.8067 35.494 85.2614H38.8371C38.7546 84.8481 38.5895 84.4761 38.2593 84.2281C37.9704 83.9802 37.5989 83.8562 37.1449 83.8562C36.7322 83.8562 36.3608 83.9802 36.0719 84.2281Z" fill="#1F4ACF"/>
<path d="M46.6794 82.1204C47.1334 81.9137 47.67 81.8311 48.2891 81.8311V84.3935C48.0414 84.3521 47.7938 84.3521 47.6287 84.3521C47.0096 84.3521 46.5556 84.5174 46.1842 84.8481C45.854 85.1787 45.6476 85.6747 45.6476 86.3772V90.1382H42.7998V81.9964H45.5238V82.9883C45.854 82.575 46.2254 82.2857 46.6794 82.1204Z" fill="#1F4ACF"/>
<path d="M57.2033 82.7403C57.8224 83.3602 58.1113 84.2695 58.1113 85.468V90.0969H55.3048V85.8813C55.3048 84.7654 54.8508 84.2282 53.9841 84.2282C53.4888 84.2282 53.1173 84.3935 52.7872 84.7241C52.4983 85.0547 52.3332 85.5094 52.3332 86.1706V90.0969H49.4854V81.9551H52.2093V82.8643C52.5395 82.5337 52.911 82.2857 53.365 82.1204C53.819 81.9551 54.273 81.8724 54.8095 81.8724C55.8001 81.8311 56.5842 82.1204 57.2033 82.7403Z" fill="#1F4ACF"/>
<path d="M62.3218 81.955H59.1025V79.5992H68.5127V81.955H65.2934V90.0968H62.3218V81.955Z" fill="#1F4ACF"/>
<path d="M76.9317 86.7492H70.9884C71.1122 87.1625 71.3599 87.4931 71.6901 87.6998C72.0202 87.9064 72.4742 88.0304 73.0108 88.0304C73.3822 88.0304 73.7537 87.9891 74.0426 87.8651C74.3315 87.7411 74.6204 87.5758 74.9093 87.3278L76.3951 88.8983C75.611 89.7662 74.4553 90.2208 72.9282 90.2208C71.979 90.2208 71.1535 90.0555 70.4106 89.6836C69.709 89.3116 69.1312 88.8157 68.7184 88.1957C68.3057 87.5345 68.1406 86.8319 68.1406 86.0053C68.1406 85.22 68.347 84.4761 68.7184 83.8562C69.0899 83.2362 69.6264 82.699 70.3281 82.3683C71.0297 81.9964 71.7726 81.8311 72.6393 81.8311C73.4648 81.8311 74.2077 81.9964 74.868 82.327C75.5284 82.6576 76.065 83.1536 76.4364 83.7735C76.8079 84.3935 77.0142 85.1787 77.0142 86.0466C76.973 86.0879 76.973 86.2946 76.9317 86.7492ZM71.525 84.2281C71.2361 84.4761 71.0297 84.8067 70.9472 85.2614H74.2902C74.2077 84.8481 74.0426 84.4761 73.7124 84.2281C73.4235 83.9802 73.0521 83.8562 72.5981 83.8562C72.1853 83.8562 71.8139 83.9802 71.525 84.2281Z" fill="#1F4ACF"/>
<path d="M80.0275 89.7249C79.3259 89.3529 78.7481 88.857 78.3766 88.2371C77.9639 87.5758 77.7988 86.8732 77.7988 86.0466C77.7988 85.22 78.0052 84.5174 78.3766 83.8562C78.7894 83.2362 79.3259 82.7403 80.0275 82.3683C80.7292 81.9964 81.5546 81.8311 82.4626 81.8311C83.3706 81.8311 84.1961 82.0377 84.8564 82.4097C85.5168 82.8229 86.0121 83.3602 86.301 84.0628L84.0723 85.1787C83.7008 84.4348 83.1643 84.0628 82.4626 84.0628C81.9674 84.0628 81.5134 84.2281 81.1832 84.5588C80.853 84.8894 80.6879 85.3853 80.6879 85.964C80.6879 86.5839 80.853 87.0385 81.1832 87.4105C81.5134 87.7411 81.9261 87.9477 82.4626 87.9477C83.1643 87.9477 83.7008 87.5758 84.0723 86.8319L86.301 87.9477C86.0121 88.6503 85.5581 89.1876 84.8564 89.6009C84.1961 90.0142 83.3706 90.1795 82.4626 90.1795C81.5546 90.2622 80.7704 90.0555 80.0275 89.7249Z" fill="#1F4ACF"/>
<path d="M95.0923 82.7403C95.7113 83.3602 96.0003 84.2694 96.0003 85.468V90.0968H93.1524V85.8813C93.1524 84.7654 92.6984 84.2281 91.8317 84.2281C91.3365 84.2281 90.965 84.3934 90.6348 84.7241C90.3459 85.0547 90.1808 85.5093 90.1808 86.1706V90.0968H87.333V78.938H90.1808V82.6989C90.511 82.4096 90.8412 82.203 91.2952 82.0377C91.7079 81.8723 92.1619 81.831 92.6572 81.831C93.6477 81.831 94.4732 82.1203 95.0923 82.7403Z" fill="#1F4ACF"/>
<path d="M52.623 69.8043L54.8105 69.3083L56.0074 67.8205L52.623 67.6552V69.8043Z" fill="#1F4ACF"/>
<path d="M52.6226 63.0264V64.3902V64.5969C52.6226 65.0102 52.7051 65.3821 52.8702 65.7127C53.0353 66.0847 53.2829 66.3327 53.5719 66.5393C53.8608 66.746 54.2322 66.8286 54.6037 66.8286C54.9751 66.8286 55.3466 66.746 55.6355 66.5393C55.9244 66.3327 56.172 66.0847 56.3371 65.7127C56.5022 65.3408 56.5848 64.9275 56.5848 64.4315C56.5848 63.9356 56.5022 63.5223 56.3371 63.1504C56.2546 62.9437 56.1308 62.8197 56.0069 62.6544L56.7911 62.5717V63.1504H57.6166V66.7046H58.896V62.1998L59.7215 61.2905L52.54 60.9186V63.0264H52.6226ZM55.1815 65.3821C55.0577 65.5888 54.8926 65.7127 54.6449 65.7127C54.4386 65.7127 54.2322 65.5888 54.1084 65.3821C53.9846 65.1755 53.902 64.8448 53.902 64.3902C53.902 63.9356 53.9846 63.605 54.1084 63.3983C54.2322 63.1917 54.3973 63.0677 54.6449 63.0677C54.8513 63.0677 55.0164 63.1917 55.1815 63.3983C55.3053 63.605 55.3878 63.9356 55.3878 64.3902C55.3878 64.8448 55.3053 65.1755 55.1815 65.3821Z" fill="#1F4ACF"/>
<path d="M60.6295 5.78557C59.1437 4.5457 57.4102 3.51248 55.4704 2.64457C51.5495 0.867421 46.8857 -0.000488281 41.6028 -0.000488281H16.3027V9.6705H27.694H36.2374H41.025C45.9777 9.6705 49.7748 10.7451 52.3337 12.8528C54.5211 14.6713 55.718 17.151 56.0482 20.2921L52.5813 20.1267V22.0279V23.7637C52.5813 24.2596 52.6639 24.6729 52.829 25.0449C52.994 25.4169 53.2417 25.6648 53.5306 25.8715C53.8195 26.0781 54.191 26.1608 54.5624 26.1608C54.9339 26.1608 55.264 26.0781 55.5942 25.8715C55.4704 26.2848 55.3466 26.6981 55.1815 27.07L52.5401 26.946V30.707C52.4575 30.7896 52.375 30.9136 52.2924 30.9963C49.7748 33.0627 46.1015 34.0959 41.2726 34.1373V28.0206V20.788H16.3027V34.0546V39.2621V61.4971H27.694V43.7669H37.393V71.1267H41.3139V43.7669H41.5615C45.6475 43.7669 49.3208 43.2297 52.6226 42.1964V43.1057V44.0562C52.6226 44.5522 52.7051 44.9655 52.8702 45.3374C53.0353 45.7094 53.283 45.9574 53.5719 46.164C53.8608 46.3707 54.2322 46.4533 54.6037 46.4533C54.9751 46.4533 55.3466 46.3707 55.6355 46.164C55.9244 45.9574 56.172 45.7094 56.3371 45.3374C56.5022 44.9655 56.5848 44.5522 56.5848 44.0562C56.5848 43.5603 56.5022 43.147 56.3371 42.775L56.7911 42.7337V42.775H57.6166V46.3293H58.896V42.5684L60.0517 42.4857C59.9691 42.5684 59.8866 42.6924 59.8453 42.8164C59.6802 43.1883 59.5977 43.6016 59.5977 44.0976C59.5977 44.5935 59.6802 45.0068 59.8453 45.3788C60.0104 45.7507 60.258 45.9987 60.5469 46.2053C60.8358 46.412 61.2073 46.4946 61.5787 46.4946C61.9502 46.4946 62.3217 46.412 62.6106 46.2053C62.8995 45.9987 63.1471 45.7507 63.3122 45.3788C63.4773 45.0068 63.5598 44.5935 63.5598 44.0976C63.5598 43.6016 63.4773 43.1883 63.3122 42.8164C63.1884 42.6097 63.0646 42.4031 62.8995 42.2378L63.7662 42.1551V42.775H64.5916V46.3293H65.8711V41.9485L67.9347 41.7831C67.8109 41.8245 67.6458 41.8658 67.522 41.9485C67.2331 42.1551 66.9855 42.4031 66.8204 42.775C66.6553 43.147 66.5727 43.5603 66.5727 44.0562C66.5727 44.5522 66.6553 44.9655 66.8204 45.3374C66.9855 45.7094 67.2331 45.9574 67.522 46.164C67.8109 46.3707 68.1824 46.4533 68.5538 46.4533C68.9253 46.4533 69.2967 46.3707 69.5856 46.164C69.8745 45.9574 70.1222 45.7094 70.2873 45.3374C70.4524 44.9655 70.5349 44.5522 70.5349 44.0562C70.5349 43.5603 70.4524 43.147 70.2873 42.775C70.1222 42.4031 69.8745 42.1551 69.5856 41.9485C69.338 41.7831 69.0904 41.7418 68.8014 41.7005L69.1729 41.6592L70.1222 41.3699L56.172 40.6673C56.8737 40.3366 57.4928 39.9647 58.1531 39.5514H58.8548V39.0968C59.1849 38.8901 59.4738 38.6421 59.7628 38.4355C59.7628 38.4768 59.7627 38.5181 59.804 38.5181C59.9691 38.8901 60.2168 39.1381 60.5057 39.3447C60.7946 39.5514 61.166 39.634 61.5375 39.634C61.9089 39.634 62.2804 39.5514 62.5693 39.3447C62.8582 39.1381 63.1058 38.8901 63.2709 38.5181C63.436 38.1462 63.5186 37.7329 63.5186 37.2369C63.5186 37.0716 63.4773 36.9476 63.4773 36.8237C63.4773 36.741 63.4773 36.6583 63.436 36.5757L64.5504 36.369V36.741V39.51H65.8298V36.6997V36.2037L66.7378 36.0384C66.6553 36.2451 66.614 36.4517 66.5727 36.6583C66.5315 36.865 66.5315 37.0303 66.5315 37.2369C66.5315 37.7329 66.614 38.1462 66.7791 38.5181C66.9442 38.8901 67.1918 39.1381 67.4807 39.3447C67.7696 39.5514 68.1411 39.634 68.5125 39.634C68.884 39.634 69.2554 39.5514 69.5444 39.3447C69.8333 39.1381 70.0809 38.8901 70.246 38.5181C70.4111 38.1462 70.4936 37.7329 70.4936 37.2369C70.4936 36.9476 70.4523 36.6583 70.3698 36.4104C70.3285 36.2451 70.2873 36.0797 70.2047 35.9557C70.1222 35.7491 69.9984 35.5838 69.8745 35.4598L70.6587 35.3358V35.9557H71.4842V36.369V38.5595V39.51H72.7636V34.9639L73.5478 34.7159L63.7249 34.2199C63.89 33.972 64.1376 33.724 64.3027 33.476C64.4678 33.228 64.5916 32.9801 64.7155 32.7321H65.7473V30.583C65.8298 30.3763 65.9124 30.1284 65.9949 29.9217C66.0775 29.7151 66.16 29.5084 66.2013 29.2605L66.6553 29.2191C66.5727 29.4258 66.4902 29.6324 66.4489 29.8804C66.4076 30.087 66.4076 30.2523 66.4076 30.5003C66.4076 30.9963 66.4902 31.4096 66.6553 31.7815C66.8204 32.1535 67.068 32.4015 67.3569 32.6081C67.6458 32.8147 68.0173 32.8974 68.3887 32.8974C68.7602 32.8974 69.1316 32.8147 69.4205 32.6081C69.7094 32.4015 69.9571 32.1535 70.1222 31.7815C70.2873 31.4096 70.3698 30.9963 70.3698 30.5003C70.3698 30.211 70.3285 29.9217 70.246 29.6737C70.2047 29.5084 70.1634 29.3844 70.0809 29.2191C70.0396 29.0951 69.9571 28.9711 69.8745 28.8885L70.5762 28.8058V29.2191H71.4016V29.5911V32.7734H72.6811V29.5084V28.5992L74.332 28.4339C74.0431 28.6405 73.7954 28.8885 73.6303 29.2191C73.5891 29.3018 73.5891 29.3844 73.5478 29.4671C73.424 29.7564 73.3827 30.087 73.3827 30.5003C73.3827 30.9963 73.4652 31.4096 73.6303 31.7815C73.7954 32.1535 74.0431 32.4015 74.332 32.6081C74.4145 32.6494 74.4971 32.6908 74.5796 32.7321C74.8272 32.8561 75.0749 32.8974 75.3638 32.8974C75.7352 32.8974 76.1067 32.8147 76.3956 32.6081C76.6845 32.4015 76.9321 32.1535 77.0972 31.7815C77.2623 31.4096 77.3449 30.9963 77.3449 30.5003C77.3449 30.0044 77.2623 29.5911 77.0972 29.2191C76.9321 28.8472 76.6845 28.5992 76.3956 28.3925C76.2718 28.3099 76.148 28.2686 76.0241 28.2272L77.0147 28.1032L66.6553 27.566C66.8204 26.9047 66.9442 26.2434 67.0267 25.5408C67.1093 25.6235 67.1918 25.7062 67.2744 25.7475C67.5633 25.9541 67.9347 26.0368 68.3062 26.0368C68.6776 26.0368 69.0491 25.9541 69.338 25.7475C69.6269 25.5408 69.8745 25.2929 70.0396 24.9209C70.2047 24.5489 70.2873 24.1357 70.2873 23.6397C70.2873 23.1438 70.2047 22.7305 70.0396 22.3585C69.9571 22.1932 69.8745 22.0692 69.792 21.9452L70.5349 21.9039V22.3172H71.3603V25.8715H72.6398V21.9039L74.0431 21.8212C73.878 21.9865 73.7129 22.1932 73.5891 22.4412C73.424 22.8131 73.3414 23.2264 73.3414 23.7224C73.3414 24.2183 73.424 24.6316 73.5891 25.0036C73.7542 25.3755 74.0018 25.6235 74.2907 25.8301C74.5796 26.0368 74.9511 26.1194 75.3225 26.1194C75.694 26.1194 76.0654 26.0368 76.3543 25.8301C76.6432 25.6235 76.8909 25.3755 77.056 25.0036C77.2211 24.6316 77.3036 24.2183 77.3036 23.7224C77.3036 23.2264 77.2211 22.8131 77.056 22.4412C76.8909 22.1105 76.6845 21.9039 76.4369 21.6972L77.51 21.6559V22.4412H78.3354V25.9955H79.6149V21.5733L80.4816 21.5319L79.6149 21.4906L78.9132 21.4493L67.1918 20.8707C67.0267 16.8204 66.0362 13.2248 64.0964 10.2078C63.9726 10.0011 63.8075 9.87714 63.6836 9.6705H80.6467V20.8293L83.6183 15.1673V9.6705V5.78557H60.6295ZM62.1978 45.0481C62.074 45.2548 61.9089 45.3788 61.6613 45.3788C61.4549 45.3788 61.2486 45.2548 61.1247 45.0481C61.0009 44.8415 60.9184 44.5109 60.9184 44.0562C60.9184 43.6016 61.0009 43.271 61.1247 43.0643C61.2486 42.8577 61.4137 42.7337 61.6613 42.7337C61.8677 42.7337 62.0327 42.8577 62.1978 43.0643C62.3217 43.271 62.4042 43.6016 62.4042 44.0562C62.4042 44.5109 62.3217 44.8415 62.1978 45.0481ZM69.2554 43.0643C69.3793 43.271 69.4618 43.6016 69.4618 44.0562C69.4618 44.5109 69.3793 44.8415 69.2554 45.0481C69.1316 45.2548 68.9665 45.3788 68.7189 45.3788C68.5125 45.3788 68.3062 45.2548 68.1824 45.0481C68.0585 44.8415 67.976 44.5109 67.976 44.0562C67.976 43.6016 68.0585 43.271 68.1824 43.0643C68.3062 42.8577 68.4713 42.7337 68.7189 42.7337C68.9253 42.7337 69.1316 42.8577 69.2554 43.0643ZM69.4205 37.2783C69.4205 37.7329 69.338 38.0635 69.2142 38.2702C69.0904 38.4768 68.9253 38.6008 68.6776 38.6008C68.4713 38.6008 68.2649 38.4768 68.1411 38.2702C68.0173 38.0635 67.9347 37.7329 67.9347 37.2783C67.9347 36.989 67.976 36.7823 68.0173 36.617C68.0585 36.493 68.0998 36.369 68.1411 36.2864C68.2649 36.0797 68.43 35.9557 68.6776 35.9557C68.884 35.9557 69.0491 36.0797 69.2142 36.2864C69.2554 36.369 69.2967 36.4517 69.2967 36.5344C69.3793 36.741 69.4205 36.9476 69.4205 37.2783ZM69.4205 30.5003C69.4205 30.9549 69.338 31.2856 69.2142 31.4922C69.0904 31.6989 68.9253 31.8228 68.6776 31.8228C68.4713 31.8228 68.2649 31.6989 68.1411 31.4922C68.0173 31.2856 67.9347 30.9549 67.9347 30.5003C67.9347 30.211 67.976 30.0044 68.0173 29.8391C68.0585 29.7151 68.0998 29.5911 68.1411 29.5084C68.2649 29.3018 68.43 29.1778 68.6776 29.1778C68.884 29.1778 69.0491 29.3018 69.2142 29.5084C69.2554 29.5911 69.2554 29.6737 69.2967 29.7564C69.3793 29.963 69.4205 30.1697 69.4205 30.5003ZM76.2718 31.4922C76.148 31.6989 75.9829 31.8228 75.7352 31.8228C75.6114 31.8228 75.5289 31.7815 75.4463 31.7402C75.3638 31.6989 75.2812 31.6162 75.1987 31.4922C75.0749 31.2856 74.9923 30.9549 74.9923 30.5003C74.9923 30.0457 75.0749 29.7151 75.1987 29.5084C75.24 29.4671 75.2812 29.4258 75.3225 29.3844C75.4463 29.2604 75.5701 29.1778 75.7352 29.1778C75.8591 29.1778 75.9829 29.2605 76.1067 29.3431C76.148 29.3844 76.2305 29.4258 76.2718 29.5084C76.3543 29.6324 76.3956 29.7977 76.4369 30.0044C76.4781 30.1697 76.4781 30.335 76.4781 30.5416C76.4781 30.9549 76.3956 31.2856 76.2718 31.4922ZM55.1815 43.0643C55.3053 43.271 55.3879 43.6016 55.3879 44.0562C55.3879 44.5109 55.3053 44.8415 55.1815 45.0481C55.0577 45.2548 54.8926 45.3788 54.645 45.3788C54.4386 45.3788 54.2322 45.2548 54.1084 45.0481C53.9846 44.8415 53.9021 44.5109 53.9021 44.0562C53.9021 43.6016 53.9846 43.271 54.1084 43.0643C54.1497 43.023 54.1497 43.023 54.191 42.9817L55.0164 42.899C55.099 42.9404 55.1402 42.9817 55.1815 43.0643ZM62.3629 36.9476C62.3629 37.0716 62.4042 37.1543 62.4042 37.2783C62.4042 37.7329 62.3217 38.0635 62.1978 38.2702C62.074 38.4768 61.9089 38.6008 61.6613 38.6008C61.4549 38.6008 61.2486 38.4768 61.1247 38.2702C61.0422 38.1049 60.9597 37.8569 60.9597 37.5676C61.166 37.3609 61.4137 37.1956 61.62 36.989L62.3629 36.865C62.3629 36.9063 62.3629 36.9063 62.3629 36.9476ZM76.2718 24.7143C76.148 24.9209 75.9829 25.0449 75.7352 25.0449C75.5289 25.0449 75.3225 24.9209 75.1987 24.7143C75.0749 24.5076 74.9923 24.177 74.9923 23.7224C74.9923 23.2677 75.0749 22.9371 75.1987 22.7305C75.3225 22.5238 75.4876 22.3998 75.7352 22.3998C75.9416 22.3998 76.1067 22.5238 76.2718 22.7305C76.3956 22.9371 76.4781 23.2677 76.4781 23.7224C76.4781 24.177 76.3956 24.5076 76.2718 24.7143ZM55.1815 24.7143C55.0577 24.9209 54.8926 25.0449 54.645 25.0449C54.4386 25.0449 54.2322 24.9209 54.1084 24.7143C53.9846 24.5076 53.9021 24.177 53.9021 23.7224C53.9021 23.3091 53.9433 23.0611 54.0671 22.8131L55.1815 22.7718C55.3053 22.9784 55.3466 23.3091 55.3466 23.7224C55.3879 24.177 55.3053 24.5076 55.1815 24.7143ZM69.2554 24.7143C69.1316 24.9209 68.9665 25.0449 68.7189 25.0449C68.5125 25.0449 68.3062 24.9209 68.1824 24.7143C68.0585 24.5076 67.976 24.177 67.976 23.7224C67.976 23.2677 68.0585 22.9371 68.1824 22.7305C68.3062 22.5238 68.4713 22.3998 68.7189 22.3998C68.9253 22.3998 69.0904 22.5238 69.2554 22.7305C69.3793 22.9371 69.4618 23.2677 69.4618 23.7224C69.4205 24.177 69.3793 24.5076 69.2554 24.7143Z" fill="#1F4ACF"/>
<path d="M52.6226 49.4703V50.8342C52.6226 51.3301 52.7051 51.7434 52.8702 52.1154C53.0353 52.4874 53.2829 52.7353 53.5719 52.942C53.8608 53.1486 54.2322 53.2313 54.6037 53.2313C54.9751 53.2313 55.3466 53.1486 55.6355 52.942C55.9244 52.7353 56.172 52.4874 56.3371 52.1154C56.5022 51.7434 56.5848 51.3301 56.5848 50.8342C56.5848 50.3383 56.5022 49.925 56.3371 49.553C56.2546 49.3877 56.172 49.2637 56.0895 49.1397L56.8324 49.0571V49.5117H57.6578V53.066H58.9373V48.8504L60.5882 48.7264C60.2993 48.9331 60.0516 49.181 59.8866 49.553C59.7215 49.925 59.6389 50.3383 59.6389 50.8342C59.6389 51.3301 59.7215 51.7434 59.8866 52.1154C60.0516 52.4874 60.2993 52.7353 60.5882 52.942C60.8771 53.1486 61.2486 53.2313 61.62 53.2313C61.9915 53.2313 62.3629 53.1486 62.6518 52.942C62.9407 52.7353 63.1884 52.4874 63.3535 52.1154C63.5185 51.7434 63.6011 51.3301 63.6011 50.8342C63.6011 50.3383 63.5185 49.925 63.3535 49.553C63.1884 49.181 62.9407 48.9331 62.6518 48.7264C62.528 48.6438 62.4455 48.6438 62.3216 48.6024L66.0774 48.2718L66.614 47.9825L52.54 47.2799V49.4703H52.6226ZM61.166 49.8423C61.2898 49.6357 61.4549 49.5117 61.7025 49.5117C61.9089 49.5117 62.074 49.6357 62.2391 49.8423C62.3629 50.0489 62.4455 50.3796 62.4455 50.8342C62.4455 51.2888 62.3629 51.6195 62.2391 51.8261C62.1153 52.0327 61.9502 52.1567 61.7025 52.1567C61.4962 52.1567 61.2898 52.0327 61.166 51.8261C61.0422 51.6195 60.9596 51.2888 60.9596 50.8342C60.9596 50.3796 61.0422 50.0489 61.166 49.8423ZM54.6449 49.5117C54.8513 49.5117 55.0164 49.6357 55.1815 49.8423C55.3053 50.0489 55.3878 50.3796 55.3878 50.8342C55.3878 51.2888 55.3053 51.6195 55.1815 51.8261C55.0577 52.0327 54.8926 52.1567 54.6449 52.1567C54.4386 52.1567 54.2322 52.0327 54.1084 51.8261C53.9846 51.6195 53.902 51.2888 53.902 50.8342C53.902 50.3796 53.9846 50.0489 54.1084 49.8423C54.2735 49.6357 54.4386 49.5117 54.6449 49.5117Z" fill="#1F4ACF"/>
<path d="M63.8896 49.5531H64.7564V53.1073H66.0358V48.5612L63.8896 48.8505V49.5531Z" fill="#1F4ACF"/>
<path d="M62.7346 55.5044C62.6108 55.4217 62.4457 55.3804 62.3218 55.3391L63.1473 54.5951L52.6641 54.0579V55.711V56.2483V57.6122C52.6641 58.1081 52.7466 58.5214 52.9117 58.8934C53.0768 59.2653 53.3244 59.5133 53.6133 59.7199C53.9022 59.9266 54.2737 60.0092 54.6451 60.0092C55.0166 60.0092 55.388 59.9266 55.677 59.7199C55.9659 59.5133 56.2135 59.2653 56.3786 58.8934C56.5437 58.5214 56.6262 58.1081 56.6262 57.6122C56.6262 57.1162 56.5437 56.7029 56.3786 56.331C56.2961 56.1656 56.2135 56.0417 56.131 55.9177L56.8739 55.835V56.2896H57.6993V59.8439H58.9788V55.6284L60.6709 55.463C60.6709 55.463 60.6709 55.463 60.6297 55.463C60.3408 55.6697 60.0931 55.9177 59.928 56.2896C59.7629 56.6616 59.6804 57.0749 59.6804 57.5708C59.6804 58.0668 59.7629 58.4801 59.928 58.852C60.0931 59.224 60.3408 59.472 60.6297 59.6786C60.9186 59.8852 61.29 59.9679 61.6615 59.9679C62.0329 59.9679 62.4044 59.8852 62.6933 59.6786C62.9822 59.472 63.2298 59.224 63.3949 58.852C63.56 58.4801 63.6426 58.0668 63.6426 57.5708C63.6426 57.0749 63.56 56.6616 63.3949 56.2896C63.2711 55.959 63.0235 55.711 62.7346 55.5044ZM55.1817 58.6041C55.0579 58.8107 54.8928 58.9347 54.6451 58.9347C54.4388 58.9347 54.2324 58.8107 54.1086 58.6041C53.9848 58.3974 53.9022 58.0668 53.9022 57.6122C53.9022 57.1575 53.9848 56.8269 54.1086 56.6203C54.2324 56.4136 54.3975 56.2896 54.6451 56.2896C54.8515 56.2896 55.0166 56.4136 55.1817 56.6203C55.3055 56.8269 55.3881 57.1575 55.3881 57.6122C55.3881 58.0668 55.3055 58.3974 55.1817 58.6041ZM62.198 58.6041C62.0742 58.8107 61.9091 58.9347 61.6615 58.9347C61.4551 58.9347 61.2488 58.8107 61.1249 58.6041C61.0011 58.3974 60.9186 58.0668 60.9186 57.6122C60.9186 57.1575 61.0011 56.8269 61.1249 56.6203C61.2488 56.4136 61.4138 56.2896 61.6615 56.2896C61.8678 56.2896 62.0329 56.4136 62.198 56.6203C62.3218 56.8269 62.4044 57.1575 62.4044 57.6122C62.4044 58.0668 62.3218 58.3974 62.198 58.6041Z" fill="#1F4ACF"/>
</svg>
