<svg width="30" height="30" viewBox="0 0 30 30" fill="none" xmlns="http://www.w3.org/2000/svg">
<g clip-path="url(#clip0)">
<path d="M7.05249 15C7.05249 19.3824 10.6178 22.9477 15.0002 22.9477C25.5438 22.5112 25.5408 7.48731 15.0001 7.05237C10.6178 7.05237 7.05249 10.6176 7.05249 15ZM14.1171 9.23097V14.1169H12.3806C12.5351 11.8211 13.2764 10.0085 14.1171 9.23097ZM14.1171 15.8831V20.7691C13.2764 19.9916 12.5351 18.1789 12.3806 15.8831H14.1171ZM15.8832 20.7691V15.8831H17.6197C17.4652 18.1789 16.7239 19.9916 15.8832 20.7691ZM15.8832 14.117V9.23103C16.7239 10.0085 17.4652 11.8211 17.6197 14.117H15.8832ZM11.6039 9.83782C11.0478 11.041 10.7047 12.5277 10.6116 14.117H8.88204C9.13849 12.3317 10.1605 10.7906 11.6039 9.83782ZM8.88199 15.8831H10.6115C10.7047 17.4724 11.0478 18.9591 11.6038 20.1623C10.1605 19.2095 9.13849 17.6683 8.88199 15.8831ZM18.3964 20.1623C18.9525 18.959 19.2956 17.4724 19.3887 15.8831H21.1183C20.8618 17.6684 19.8398 19.2095 18.3964 20.1623ZM21.1183 14.117H19.3887C19.2956 12.5277 18.9525 11.041 18.3964 9.83776C19.8398 10.7905 20.8618 12.3317 21.1183 14.117Z" fill="#1F4ACF"/>
<path d="M27.9945 12.4275C27.2209 8.37384 24.4126 4.77949 20.6773 3.02994L19.9194 4.62519C23.1773 6.17286 25.4925 9.12104 26.2297 12.606C23.7128 13.8274 24.527 17.6088 27.3631 17.6493C30.502 17.5665 30.9942 13.2356 27.9945 12.4275ZM27.363 15.8831C26.876 15.8831 26.4799 15.487 26.4799 15C26.5284 13.8285 28.1978 13.8288 28.2461 15C28.2461 15.487 27.8499 15.8831 27.363 15.8831Z" fill="#1F4ACF"/>
<path d="M17.3941 26.2298C16.1727 23.7129 12.3913 24.5271 12.3508 27.3631C12.4336 30.502 16.7644 30.9943 17.5726 27.9946C21.6263 27.2211 25.2205 24.4127 26.9701 20.6774L25.3748 19.9196C23.8271 23.1774 20.879 25.4926 17.3941 26.2298ZM15.0001 28.2461C14.5131 28.2461 14.117 27.85 14.117 27.3631C14.1655 26.1915 15.8348 26.1919 15.8831 27.3631C15.8831 27.85 15.487 28.2461 15.0001 28.2461Z" fill="#1F4ACF"/>
<path d="M3.77026 17.394C6.2872 16.1726 5.47294 12.3913 2.63692 12.3508C-0.502 12.4336 -0.994226 16.7643 2.0054 17.5726C2.77904 21.6262 5.58733 25.2206 9.32262 26.9702L10.0805 25.3749C6.8227 23.8271 4.50739 20.879 3.77026 17.394ZM2.63698 14.1169C3.12391 14.1169 3.52005 14.5131 3.52005 15C3.47154 16.1716 1.80224 16.1712 1.7539 15C1.7539 14.5131 2.15005 14.1169 2.63698 14.1169Z" fill="#1F4ACF"/>
<path d="M12.6059 3.77025C13.8272 6.28719 17.6087 5.47293 17.6491 2.63691C17.5664 -0.502069 13.2356 -0.994237 12.4273 2.00539C8.37374 2.77897 4.77939 5.58732 3.02979 9.32261L4.62509 10.0805C6.17282 6.82263 9.12088 4.50738 12.6059 3.77025ZM14.9999 1.75389C15.4868 1.75389 15.883 2.15004 15.883 2.63697C15.8345 3.80851 14.1652 3.80816 14.1168 2.63697C14.1168 2.15004 14.513 1.75389 14.9999 1.75389Z" fill="#1F4ACF"/>
</g>
<defs>
<clipPath id="clip0">
<rect width="30" height="30" fill="white"/>
</clipPath>
</defs>
</svg>
