<svg width="96" height="102" viewBox="0 0 96 102" fill="none" xmlns="http://www.w3.org/2000/svg">
<path d="M7.30524 80.0542C8.00688 80.3849 8.54342 80.8395 8.91488 81.4181C9.28633 81.9967 9.49269 82.6993 9.49269 83.4845C9.49269 84.2698 9.28633 84.9724 8.91488 85.551C8.54342 86.1296 8.00688 86.5842 7.30524 86.9148C6.60361 87.2455 5.77816 87.3695 4.82889 87.3695H2.97162V90.1385H0V79.5996H4.82889C5.77816 79.5996 6.60361 79.7236 7.30524 80.0542ZM6.02579 84.6004C6.35598 84.3524 6.47979 83.9392 6.47979 83.4845C6.47979 82.9886 6.3147 82.6166 6.02579 82.3273C5.69561 82.038 5.24162 81.914 4.62253 81.914H2.97162V85.0137H4.62253C5.24162 85.0137 5.69561 84.8897 6.02579 84.6004Z" fill="white"/>
<path d="M17.293 82.7408C17.9946 83.3607 18.366 84.3113 18.366 85.5925V90.1387H15.6833V89.1055C15.2706 89.8907 14.4864 90.304 13.2895 90.304C12.6704 90.304 12.0926 90.18 11.6386 89.9734C11.1846 89.7667 10.8132 89.4361 10.6068 89.0641C10.3592 88.6922 10.2354 88.2789 10.2354 87.7829C10.2354 86.9977 10.5243 86.4191 11.1021 85.9645C11.6799 85.5512 12.5879 85.3445 13.8261 85.3445H15.4357C15.3944 84.4766 14.8166 84.0633 13.7022 84.0633C13.3308 84.0633 12.9181 84.146 12.5053 84.27C12.0926 84.394 11.7624 84.5593 11.4735 84.8073L10.5243 82.8648C10.9783 82.5755 11.5148 82.3275 12.1752 82.1622C12.8355 81.9969 13.4546 81.9142 14.115 81.9142C15.5595 81.8316 16.5913 82.1209 17.293 82.7408ZM14.9404 88.1962C15.1881 88.0309 15.3532 87.7829 15.477 87.4936V86.791H14.2388C13.4133 86.791 13.0006 87.0804 13.0006 87.6176C13.0006 87.8656 13.0832 88.0722 13.2895 88.2376C13.4959 88.4029 13.7435 88.4442 14.0737 88.4442C14.4039 88.4442 14.6928 88.3615 14.9404 88.1962Z" fill="white"/>
<path d="M25.7952 89.7666C25.5476 89.9319 25.2587 90.0146 24.9285 90.0973C24.5983 90.1799 24.2269 90.2212 23.8141 90.2212C22.7411 90.2212 21.9156 89.9733 21.3791 89.436C20.8012 88.8987 20.5123 88.1548 20.5123 87.1216V84.3939H19.3154V82.2447H20.5123V80.137H23.3601V82.2447H25.2174V84.3939H23.3601V87.1216C23.3601 87.4109 23.4427 87.6588 23.6078 87.8242C23.7729 87.9895 23.9792 88.0721 24.2269 88.0721C24.557 88.0721 24.846 87.9895 25.0936 87.8242L25.7952 89.7666Z" fill="white"/>
<path d="M32.3167 89.7666C32.0691 89.9319 31.7802 90.0146 31.45 90.0973C31.1198 90.1799 30.7483 90.2212 30.3356 90.2212C29.2625 90.2212 28.4371 89.9733 27.9005 89.436C27.3227 88.8987 27.0338 88.1548 27.0338 87.1216V84.3939H25.8369V82.2447H27.0338V80.137H29.8816V82.2447H31.7802V84.3939H29.9229V87.1216C29.9229 87.4109 30.0054 87.6588 30.1705 87.8242C30.3356 87.9895 30.542 88.0721 30.7896 88.0721C31.1198 88.0721 31.4087 87.9895 31.6563 87.8242L32.3167 89.7666Z" fill="white"/>
<path d="M41.4786 86.7497H35.5353C35.6591 87.163 35.9068 87.4936 36.2369 87.7003C36.5671 87.9069 37.0211 88.0309 37.5577 88.0309C37.9291 88.0309 38.3006 87.9896 38.5895 87.8656C38.8784 87.7416 39.1673 87.5763 39.4562 87.3283L40.942 88.8988C40.1578 89.7667 39.0022 90.2213 37.4751 90.2213C36.5259 90.2213 35.7004 90.056 34.9575 89.6841C34.2559 89.3121 33.678 88.8161 33.2653 88.1962C32.8526 87.5349 32.6875 86.8324 32.6875 86.0058C32.6875 85.2205 32.8939 84.4766 33.2653 83.8567C33.6368 83.2367 34.1733 82.6995 34.8749 82.3688C35.5766 81.9969 36.3195 81.8315 37.1862 81.8315C38.0117 81.8315 38.7546 81.9969 39.4149 82.3275C40.0753 82.6581 40.6118 83.1541 40.9833 83.774C41.3547 84.3939 41.5611 85.1792 41.5611 86.0471C41.5198 86.0884 41.5198 86.2951 41.4786 86.7497ZM36.0719 84.2286C35.7829 84.4766 35.5766 84.8072 35.494 85.2619H38.8371C38.7546 84.8486 38.5895 84.4766 38.2593 84.2286C37.9704 83.9807 37.5989 83.8567 37.1449 83.8567C36.7322 83.8567 36.3608 83.9807 36.0719 84.2286Z" fill="white"/>
<path d="M46.6794 82.1208C47.1334 81.9142 47.67 81.8315 48.2891 81.8315V84.3939C48.0414 84.3526 47.7938 84.3526 47.6287 84.3526C47.0096 84.3526 46.5556 84.5179 46.1842 84.8486C45.854 85.1792 45.6476 85.6751 45.6476 86.3777V90.1387H42.7998V81.9969H45.5238V82.9888C45.854 82.5755 46.2254 82.2862 46.6794 82.1208Z" fill="white"/>
<path d="M57.2033 82.7407C57.8224 83.3606 58.1113 84.2699 58.1113 85.4684V90.0972H55.3048V85.8817C55.3048 84.7658 54.8508 84.2285 53.9841 84.2285C53.4888 84.2285 53.1173 84.3938 52.7872 84.7245C52.4983 85.0551 52.3332 85.5097 52.3332 86.171V90.0972H49.4854V81.9554H52.2093V82.8647C52.5395 82.534 52.911 82.2861 53.365 82.1207C53.819 81.9554 54.273 81.8728 54.8095 81.8728C55.8001 81.8314 56.5842 82.1207 57.2033 82.7407Z" fill="white"/>
<path d="M62.3218 81.9554H59.1025V79.5996H68.5127V81.9554H65.2934V90.0972H62.3218V81.9554Z" fill="white"/>
<path d="M76.9317 86.7497H70.9884C71.1122 87.163 71.3599 87.4936 71.6901 87.7003C72.0202 87.9069 72.4742 88.0309 73.0108 88.0309C73.3822 88.0309 73.7537 87.9896 74.0426 87.8656C74.3315 87.7416 74.6204 87.5763 74.9093 87.3283L76.3951 88.8988C75.611 89.7667 74.4553 90.2213 72.9282 90.2213C71.979 90.2213 71.1535 90.056 70.4106 89.6841C69.709 89.3121 69.1312 88.8161 68.7184 88.1962C68.3057 87.5349 68.1406 86.8324 68.1406 86.0058C68.1406 85.2205 68.347 84.4766 68.7184 83.8567C69.0899 83.2367 69.6264 82.6995 70.3281 82.3688C71.0297 81.9969 71.7726 81.8315 72.6393 81.8315C73.4648 81.8315 74.2077 81.9969 74.868 82.3275C75.5284 82.6581 76.065 83.1541 76.4364 83.774C76.8079 84.3939 77.0142 85.1792 77.0142 86.0471C76.973 86.0884 76.973 86.2951 76.9317 86.7497ZM71.525 84.2286C71.2361 84.4766 71.0297 84.8072 70.9472 85.2619H74.2902C74.2077 84.8486 74.0426 84.4766 73.7124 84.2286C73.4235 83.9807 73.0521 83.8567 72.5981 83.8567C72.1853 83.8567 71.8139 83.9807 71.525 84.2286Z" fill="white"/>
<path d="M80.0275 89.7254C79.3259 89.3534 78.7481 88.8575 78.3766 88.2375C77.9639 87.5763 77.7988 86.8737 77.7988 86.0471C77.7988 85.2205 78.0052 84.5179 78.3766 83.8567C78.7894 83.2367 79.3259 82.7408 80.0275 82.3688C80.7292 81.9969 81.5546 81.8315 82.4626 81.8315C83.3706 81.8315 84.1961 82.0382 84.8564 82.4101C85.5168 82.8234 86.0121 83.3607 86.301 84.0633L84.0723 85.1792C83.7008 84.4353 83.1643 84.0633 82.4626 84.0633C81.9674 84.0633 81.5134 84.2286 81.1832 84.5593C80.853 84.8899 80.6879 85.3858 80.6879 85.9644C80.6879 86.5844 80.853 87.039 81.1832 87.411C81.5134 87.7416 81.9261 87.9482 82.4626 87.9482C83.1643 87.9482 83.7008 87.5763 84.0723 86.8324L86.301 87.9482C86.0121 88.6508 85.5581 89.1881 84.8564 89.6014C84.1961 90.0147 83.3706 90.18 82.4626 90.18C81.5546 90.2627 80.7704 90.056 80.0275 89.7254Z" fill="white"/>
<path d="M95.0923 82.7407C95.7113 83.3607 96.0003 84.2699 96.0003 85.4685V90.0973H93.1524V85.8818C93.1524 84.7659 92.6984 84.2286 91.8317 84.2286C91.3365 84.2286 90.965 84.3939 90.6348 84.7245C90.3459 85.0552 90.1808 85.5098 90.1808 86.1711V90.0973H87.333V78.9385H90.1808V82.6994C90.511 82.4101 90.8412 82.2035 91.2952 82.0382C91.7079 81.8728 92.1619 81.8315 92.6572 81.8315C93.6477 81.8315 94.4732 82.1208 95.0923 82.7407Z" fill="white"/>
<path d="M52.623 69.8046L54.8105 69.3087L56.0074 67.8208L52.623 67.6555V69.8046Z" fill="white"/>
<path d="M52.6226 63.0267V64.3906V64.5972C52.6226 65.0105 52.7051 65.3825 52.8702 65.7131C53.0353 66.0851 53.2829 66.3331 53.5719 66.5397C53.8608 66.7463 54.2322 66.829 54.6037 66.829C54.9751 66.829 55.3466 66.7463 55.6355 66.5397C55.9244 66.3331 56.172 66.0851 56.3371 65.7131C56.5022 65.3412 56.5848 64.9279 56.5848 64.4319C56.5848 63.936 56.5022 63.5227 56.3371 63.1507C56.2546 62.9441 56.1308 62.8201 56.0069 62.6548L56.7911 62.5721V63.1507H57.6166V66.705H58.896V62.2001L59.7215 61.2909L52.54 60.9189V63.0267H52.6226ZM55.1815 65.3825C55.0577 65.5891 54.8926 65.7131 54.6449 65.7131C54.4386 65.7131 54.2322 65.5891 54.1084 65.3825C53.9846 65.1758 53.902 64.8452 53.902 64.3906C53.902 63.936 53.9846 63.6053 54.1084 63.3987C54.2322 63.192 54.3973 63.0681 54.6449 63.0681C54.8513 63.0681 55.0164 63.192 55.1815 63.3987C55.3053 63.6053 55.3878 63.936 55.3878 64.3906C55.3878 64.8452 55.3053 65.1758 55.1815 65.3825Z" fill="white"/>
<path d="M60.6295 5.78606C59.1437 4.54619 57.4102 3.51297 55.4704 2.64506C51.5495 0.867909 46.8857 0 41.6028 0H16.3027V9.67099H27.694H36.2374H41.025C45.9777 9.67099 49.7748 10.7455 52.3337 12.8533C54.5211 14.6718 55.718 17.1515 56.0482 20.2925L52.5813 20.1272V22.0284V23.7642C52.5813 24.2601 52.6639 24.6734 52.829 25.0454C52.994 25.4173 53.2417 25.6653 53.5306 25.872C53.8195 26.0786 54.191 26.1613 54.5624 26.1613C54.9339 26.1613 55.264 26.0786 55.5942 25.872C55.4704 26.2852 55.3466 26.6985 55.1815 27.0705L52.5401 26.9465V30.7075C52.4575 30.7901 52.375 30.9141 52.2924 30.9968C49.7748 33.0632 46.1015 34.0964 41.2726 34.1378V28.0211V20.7885H16.3027V34.0551V39.2626V61.4976H27.694V43.7674H37.393V71.1272H41.3139V43.7674H41.5615C45.6475 43.7674 49.3208 43.2301 52.6226 42.1969V43.1062V44.0567C52.6226 44.5527 52.7051 44.966 52.8702 45.3379C53.0353 45.7099 53.283 45.9579 53.5719 46.1645C53.8608 46.3711 54.2322 46.4538 54.6037 46.4538C54.9751 46.4538 55.3466 46.3711 55.6355 46.1645C55.9244 45.9579 56.172 45.7099 56.3371 45.3379C56.5022 44.966 56.5848 44.5527 56.5848 44.0567C56.5848 43.5608 56.5022 43.1475 56.3371 42.7755L56.7911 42.7342V42.7755H57.6166V46.3298H58.896V42.5689L60.0517 42.4862C59.9691 42.5689 59.8866 42.6929 59.8453 42.8169C59.6802 43.1888 59.5977 43.6021 59.5977 44.098C59.5977 44.594 59.6802 45.0073 59.8453 45.3793C60.0104 45.7512 60.258 45.9992 60.5469 46.2058C60.8358 46.4125 61.2073 46.4951 61.5787 46.4951C61.9502 46.4951 62.3217 46.4125 62.6106 46.2058C62.8995 45.9992 63.1471 45.7512 63.3122 45.3793C63.4773 45.0073 63.5598 44.594 63.5598 44.098C63.5598 43.6021 63.4773 43.1888 63.3122 42.8169C63.1884 42.6102 63.0646 42.4036 62.8995 42.2382L63.7662 42.1556V42.7755H64.5916V46.3298H65.8711V41.9489L67.9347 41.7836C67.8109 41.825 67.6458 41.8663 67.522 41.9489C67.2331 42.1556 66.9855 42.4036 66.8204 42.7755C66.6553 43.1475 66.5727 43.5608 66.5727 44.0567C66.5727 44.5527 66.6553 44.966 66.8204 45.3379C66.9855 45.7099 67.2331 45.9579 67.522 46.1645C67.8109 46.3711 68.1824 46.4538 68.5538 46.4538C68.9253 46.4538 69.2967 46.3711 69.5856 46.1645C69.8745 45.9579 70.1222 45.7099 70.2873 45.3379C70.4524 44.966 70.5349 44.5527 70.5349 44.0567C70.5349 43.5608 70.4524 43.1475 70.2873 42.7755C70.1222 42.4036 69.8745 42.1556 69.5856 41.9489C69.338 41.7836 69.0904 41.7423 68.8014 41.701L69.1729 41.6596L70.1222 41.3703L56.172 40.6677C56.8737 40.3371 57.4928 39.9651 58.1531 39.5519H58.8548V39.0972C59.1849 38.8906 59.4738 38.6426 59.7628 38.436C59.7628 38.4773 59.7627 38.5186 59.804 38.5186C59.9691 38.8906 60.2168 39.1386 60.5057 39.3452C60.7946 39.5519 61.166 39.6345 61.5375 39.6345C61.9089 39.6345 62.2804 39.5519 62.5693 39.3452C62.8582 39.1386 63.1058 38.8906 63.2709 38.5186C63.436 38.1467 63.5186 37.7334 63.5186 37.2374C63.5186 37.0721 63.4773 36.9481 63.4773 36.8241C63.4773 36.7415 63.4773 36.6588 63.436 36.5762L64.5504 36.3695V36.7415V39.5105H65.8298V36.7002V36.2042L66.7378 36.0389C66.6553 36.2455 66.614 36.4522 66.5727 36.6588C66.5315 36.8655 66.5315 37.0308 66.5315 37.2374C66.5315 37.7334 66.614 38.1467 66.7791 38.5186C66.9442 38.8906 67.1918 39.1386 67.4807 39.3452C67.7696 39.5519 68.1411 39.6345 68.5125 39.6345C68.884 39.6345 69.2554 39.5519 69.5444 39.3452C69.8333 39.1386 70.0809 38.8906 70.246 38.5186C70.4111 38.1467 70.4936 37.7334 70.4936 37.2374C70.4936 36.9481 70.4523 36.6588 70.3698 36.4109C70.3285 36.2455 70.2873 36.0802 70.2047 35.9562C70.1222 35.7496 69.9984 35.5843 69.8745 35.4603L70.6587 35.3363V35.9562H71.4842V36.3695V38.56V39.5105H72.7636V34.9643L73.5478 34.7164L63.7249 34.2204C63.89 33.9724 64.1376 33.7245 64.3027 33.4765C64.4678 33.2285 64.5916 32.9805 64.7155 32.7326H65.7473V30.5835C65.8298 30.3768 65.9124 30.1288 65.9949 29.9222C66.0775 29.7156 66.16 29.5089 66.2013 29.2609L66.6553 29.2196C66.5727 29.4263 66.4902 29.6329 66.4489 29.8809C66.4076 30.0875 66.4076 30.2528 66.4076 30.5008C66.4076 30.9968 66.4902 31.41 66.6553 31.782C66.8204 32.154 67.068 32.4019 67.3569 32.6086C67.6458 32.8152 68.0173 32.8979 68.3887 32.8979C68.7602 32.8979 69.1316 32.8152 69.4205 32.6086C69.7094 32.4019 69.9571 32.154 70.1222 31.782C70.2873 31.41 70.3698 30.9968 70.3698 30.5008C70.3698 30.2115 70.3285 29.9222 70.246 29.6742C70.2047 29.5089 70.1634 29.3849 70.0809 29.2196C70.0396 29.0956 69.9571 28.9716 69.8745 28.889L70.5762 28.8063V29.2196H71.4016V29.5916V32.7739H72.6811V29.5089V28.5997L74.332 28.4344C74.0431 28.641 73.7954 28.889 73.6303 29.2196C73.5891 29.3023 73.5891 29.3849 73.5478 29.4676C73.424 29.7569 73.3827 30.0875 73.3827 30.5008C73.3827 30.9968 73.4652 31.41 73.6303 31.782C73.7954 32.154 74.0431 32.4019 74.332 32.6086C74.4145 32.6499 74.4971 32.6912 74.5796 32.7326C74.8272 32.8566 75.0749 32.8979 75.3638 32.8979C75.7352 32.8979 76.1067 32.8152 76.3956 32.6086C76.6845 32.4019 76.9321 32.154 77.0972 31.782C77.2623 31.41 77.3449 30.9968 77.3449 30.5008C77.3449 30.0049 77.2623 29.5916 77.0972 29.2196C76.9321 28.8476 76.6845 28.5997 76.3956 28.393C76.2718 28.3104 76.148 28.269 76.0241 28.2277L77.0147 28.1037L66.6553 27.5664C66.8204 26.9052 66.9442 26.2439 67.0267 25.5413C67.1093 25.624 67.1918 25.7066 67.2744 25.748C67.5633 25.9546 67.9347 26.0373 68.3062 26.0373C68.6776 26.0373 69.0491 25.9546 69.338 25.748C69.6269 25.5413 69.8745 25.2934 70.0396 24.9214C70.2047 24.5494 70.2873 24.1361 70.2873 23.6402C70.2873 23.1442 70.2047 22.731 70.0396 22.359C69.9571 22.1937 69.8745 22.0697 69.792 21.9457L70.5349 21.9044V22.3177H71.3603V25.872H72.6398V21.9044L74.0431 21.8217C73.878 21.987 73.7129 22.1937 73.5891 22.4417C73.424 22.8136 73.3414 23.2269 73.3414 23.7229C73.3414 24.2188 73.424 24.6321 73.5891 25.004C73.7542 25.376 74.0018 25.624 74.2907 25.8306C74.5796 26.0373 74.9511 26.1199 75.3225 26.1199C75.694 26.1199 76.0654 26.0373 76.3543 25.8306C76.6432 25.624 76.8909 25.376 77.056 25.004C77.2211 24.6321 77.3036 24.2188 77.3036 23.7229C77.3036 23.2269 77.2211 22.8136 77.056 22.4417C76.8909 22.111 76.6845 21.9044 76.4369 21.6977L77.51 21.6564V22.4417H78.3354V25.9959H79.6149V21.5737L80.4816 21.5324L79.6149 21.4911L78.9132 21.4498L67.1918 20.8711C67.0267 16.8209 66.0362 13.2253 64.0964 10.2083C63.9726 10.0016 63.8075 9.87763 63.6836 9.67099H80.6467V20.8298L83.6183 15.1677V9.67099V5.78606H60.6295ZM62.1978 45.0486C62.074 45.2553 61.9089 45.3793 61.6613 45.3793C61.4549 45.3793 61.2486 45.2553 61.1247 45.0486C61.0009 44.842 60.9184 44.5113 60.9184 44.0567C60.9184 43.6021 61.0009 43.2715 61.1247 43.0648C61.2486 42.8582 61.4137 42.7342 61.6613 42.7342C61.8677 42.7342 62.0327 42.8582 62.1978 43.0648C62.3217 43.2715 62.4042 43.6021 62.4042 44.0567C62.4042 44.5113 62.3217 44.842 62.1978 45.0486ZM69.2554 43.0648C69.3793 43.2715 69.4618 43.6021 69.4618 44.0567C69.4618 44.5113 69.3793 44.842 69.2554 45.0486C69.1316 45.2553 68.9665 45.3793 68.7189 45.3793C68.5125 45.3793 68.3062 45.2553 68.1824 45.0486C68.0585 44.842 67.976 44.5113 67.976 44.0567C67.976 43.6021 68.0585 43.2715 68.1824 43.0648C68.3062 42.8582 68.4713 42.7342 68.7189 42.7342C68.9253 42.7342 69.1316 42.8582 69.2554 43.0648ZM69.4205 37.2788C69.4205 37.7334 69.338 38.064 69.2142 38.2707C69.0904 38.4773 68.9253 38.6013 68.6776 38.6013C68.4713 38.6013 68.2649 38.4773 68.1411 38.2707C68.0173 38.064 67.9347 37.7334 67.9347 37.2788C67.9347 36.9895 67.976 36.7828 68.0173 36.6175C68.0585 36.4935 68.0998 36.3695 68.1411 36.2869C68.2649 36.0802 68.43 35.9562 68.6776 35.9562C68.884 35.9562 69.0491 36.0802 69.2142 36.2869C69.2554 36.3695 69.2967 36.4522 69.2967 36.5348C69.3793 36.7415 69.4205 36.9481 69.4205 37.2788ZM69.4205 30.5008C69.4205 30.9554 69.338 31.2861 69.2142 31.4927C69.0904 31.6993 68.9253 31.8233 68.6776 31.8233C68.4713 31.8233 68.2649 31.6993 68.1411 31.4927C68.0173 31.2861 67.9347 30.9554 67.9347 30.5008C67.9347 30.2115 67.976 30.0049 68.0173 29.8395C68.0585 29.7156 68.0998 29.5916 68.1411 29.5089C68.2649 29.3023 68.43 29.1783 68.6776 29.1783C68.884 29.1783 69.0491 29.3023 69.2142 29.5089C69.2554 29.5916 69.2554 29.6742 69.2967 29.7569C69.3793 29.9635 69.4205 30.1702 69.4205 30.5008ZM76.2718 31.4927C76.148 31.6993 75.9829 31.8233 75.7352 31.8233C75.6114 31.8233 75.5289 31.782 75.4463 31.7407C75.3638 31.6994 75.2812 31.6167 75.1987 31.4927C75.0749 31.2861 74.9923 30.9554 74.9923 30.5008C74.9923 30.0462 75.0749 29.7156 75.1987 29.5089C75.24 29.4676 75.2812 29.4263 75.3225 29.3849C75.4463 29.2609 75.5701 29.1783 75.7352 29.1783C75.8591 29.1783 75.9829 29.2609 76.1067 29.3436C76.148 29.3849 76.2305 29.4263 76.2718 29.5089C76.3543 29.6329 76.3956 29.7982 76.4369 30.0049C76.4781 30.1702 76.4781 30.3355 76.4781 30.5421C76.4781 30.9554 76.3956 31.2861 76.2718 31.4927ZM55.1815 43.0648C55.3053 43.2715 55.3879 43.6021 55.3879 44.0567C55.3879 44.5113 55.3053 44.842 55.1815 45.0486C55.0577 45.2553 54.8926 45.3793 54.645 45.3793C54.4386 45.3793 54.2322 45.2553 54.1084 45.0486C53.9846 44.842 53.9021 44.5113 53.9021 44.0567C53.9021 43.6021 53.9846 43.2715 54.1084 43.0648C54.1497 43.0235 54.1497 43.0235 54.191 42.9822L55.0164 42.8995C55.099 42.9408 55.1402 42.9822 55.1815 43.0648ZM62.3629 36.9481C62.3629 37.0721 62.4042 37.1548 62.4042 37.2788C62.4042 37.7334 62.3217 38.064 62.1978 38.2707C62.074 38.4773 61.9089 38.6013 61.6613 38.6013C61.4549 38.6013 61.2486 38.4773 61.1247 38.2707C61.0422 38.1053 60.9597 37.8574 60.9597 37.5681C61.166 37.3614 61.4137 37.1961 61.62 36.9895L62.3629 36.8655C62.3629 36.9068 62.3629 36.9068 62.3629 36.9481ZM76.2718 24.7147C76.148 24.9214 75.9829 25.0454 75.7352 25.0454C75.5289 25.0454 75.3225 24.9214 75.1987 24.7147C75.0749 24.5081 74.9923 24.1775 74.9923 23.7229C74.9923 23.2682 75.0749 22.9376 75.1987 22.731C75.3225 22.5243 75.4876 22.4003 75.7352 22.4003C75.9416 22.4003 76.1067 22.5243 76.2718 22.731C76.3956 22.9376 76.4781 23.2682 76.4781 23.7229C76.4781 24.1775 76.3956 24.5081 76.2718 24.7147ZM55.1815 24.7147C55.0577 24.9214 54.8926 25.0454 54.645 25.0454C54.4386 25.0454 54.2322 24.9214 54.1084 24.7147C53.9846 24.5081 53.9021 24.1775 53.9021 23.7229C53.9021 23.3096 53.9433 23.0616 54.0671 22.8136L55.1815 22.7723C55.3053 22.9789 55.3466 23.3096 55.3466 23.7229C55.3879 24.1775 55.3053 24.5081 55.1815 24.7147ZM69.2554 24.7147C69.1316 24.9214 68.9665 25.0454 68.7189 25.0454C68.5125 25.0454 68.3062 24.9214 68.1824 24.7147C68.0585 24.5081 67.976 24.1775 67.976 23.7229C67.976 23.2682 68.0585 22.9376 68.1824 22.731C68.3062 22.5243 68.4713 22.4003 68.7189 22.4003C68.9253 22.4003 69.0904 22.5243 69.2554 22.731C69.3793 22.9376 69.4618 23.2682 69.4618 23.7229C69.4205 24.1775 69.3793 24.5081 69.2554 24.7147Z" fill="white"/>
<path d="M52.6226 49.471V50.8348C52.6226 51.3308 52.7051 51.744 52.8702 52.116C53.0353 52.488 53.2829 52.7359 53.5719 52.9426C53.8608 53.1492 54.2322 53.2319 54.6037 53.2319C54.9751 53.2319 55.3466 53.1492 55.6355 52.9426C55.9244 52.7359 56.172 52.488 56.3371 52.116C56.5022 51.744 56.5848 51.3308 56.5848 50.8348C56.5848 50.3389 56.5022 49.9256 56.3371 49.5536C56.2546 49.3883 56.172 49.2643 56.0895 49.1403L56.8324 49.0577V49.5123H57.6578V53.0666H58.9373V48.851L60.5882 48.727C60.2993 48.9337 60.0516 49.1817 59.8866 49.5536C59.7215 49.9256 59.6389 50.3389 59.6389 50.8348C59.6389 51.3308 59.7215 51.744 59.8866 52.116C60.0516 52.488 60.2993 52.7359 60.5882 52.9426C60.8771 53.1492 61.2486 53.2319 61.62 53.2319C61.9915 53.2319 62.3629 53.1492 62.6518 52.9426C62.9407 52.7359 63.1884 52.488 63.3535 52.116C63.5185 51.744 63.6011 51.3308 63.6011 50.8348C63.6011 50.3389 63.5185 49.9256 63.3535 49.5536C63.1884 49.1817 62.9407 48.9337 62.6518 48.727C62.528 48.6444 62.4455 48.6444 62.3216 48.603L66.0774 48.2724L66.614 47.9831L52.54 47.2805V49.471H52.6226ZM61.166 49.8429C61.2898 49.6363 61.4549 49.5123 61.7025 49.5123C61.9089 49.5123 62.074 49.6363 62.2391 49.8429C62.3629 50.0496 62.4455 50.3802 62.4455 50.8348C62.4455 51.2894 62.3629 51.6201 62.2391 51.8267C62.1153 52.0334 61.9502 52.1573 61.7025 52.1573C61.4962 52.1573 61.2898 52.0334 61.166 51.8267C61.0422 51.6201 60.9596 51.2894 60.9596 50.8348C60.9596 50.3802 61.0422 50.0496 61.166 49.8429ZM54.6449 49.5123C54.8513 49.5123 55.0164 49.6363 55.1815 49.8429C55.3053 50.0496 55.3878 50.3802 55.3878 50.8348C55.3878 51.2894 55.3053 51.6201 55.1815 51.8267C55.0577 52.0334 54.8926 52.1573 54.6449 52.1573C54.4386 52.1573 54.2322 52.0334 54.1084 51.8267C53.9846 51.6201 53.902 51.2894 53.902 50.8348C53.902 50.3802 53.9846 50.0496 54.1084 49.8429C54.2735 49.6363 54.4386 49.5123 54.6449 49.5123Z" fill="white"/>
<path d="M63.8896 49.5534H64.7564V53.1077H66.0358V48.5615L63.8896 48.8508V49.5534Z" fill="white"/>
<path d="M62.7346 55.5049C62.6108 55.4222 62.4457 55.3809 62.3218 55.3395L63.1473 54.5956L52.6641 54.0583V55.7115V56.2488V57.6126C52.6641 58.1086 52.7466 58.5219 52.9117 58.8938C53.0768 59.2658 53.3244 59.5138 53.6133 59.7204C53.9022 59.9271 54.2737 60.0097 54.6451 60.0097C55.0166 60.0097 55.388 59.9271 55.677 59.7204C55.9659 59.5138 56.2135 59.2658 56.3786 58.8938C56.5437 58.5219 56.6262 58.1086 56.6262 57.6126C56.6262 57.1167 56.5437 56.7034 56.3786 56.3314C56.2961 56.1661 56.2135 56.0421 56.131 55.9182L56.8739 55.8355V56.2901H57.6993V59.8444H58.9788V55.6289L60.6709 55.4635C60.6709 55.4635 60.6709 55.4635 60.6297 55.4635C60.3408 55.6702 60.0931 55.9182 59.928 56.2901C59.7629 56.6621 59.6804 57.0754 59.6804 57.5713C59.6804 58.0673 59.7629 58.4805 59.928 58.8525C60.0931 59.2245 60.3408 59.4724 60.6297 59.6791C60.9186 59.8857 61.29 59.9684 61.6615 59.9684C62.0329 59.9684 62.4044 59.8857 62.6933 59.6791C62.9822 59.4724 63.2298 59.2245 63.3949 58.8525C63.56 58.4805 63.6426 58.0673 63.6426 57.5713C63.6426 57.0754 63.56 56.6621 63.3949 56.2901C63.2711 55.9595 63.0235 55.7115 62.7346 55.5049ZM55.1817 58.6045C55.0579 58.8112 54.8928 58.9352 54.6451 58.9352C54.4388 58.9352 54.2324 58.8112 54.1086 58.6045C53.9848 58.3979 53.9022 58.0673 53.9022 57.6126C53.9022 57.158 53.9848 56.8274 54.1086 56.6207C54.2324 56.4141 54.3975 56.2901 54.6451 56.2901C54.8515 56.2901 55.0166 56.4141 55.1817 56.6207C55.3055 56.8274 55.3881 57.158 55.3881 57.6126C55.3881 58.0673 55.3055 58.3979 55.1817 58.6045ZM62.198 58.6045C62.0742 58.8112 61.9091 58.9352 61.6615 58.9352C61.4551 58.9352 61.2488 58.8112 61.1249 58.6045C61.0011 58.3979 60.9186 58.0673 60.9186 57.6126C60.9186 57.158 61.0011 56.8274 61.1249 56.6207C61.2488 56.4141 61.4138 56.2901 61.6615 56.2901C61.8678 56.2901 62.0329 56.4141 62.198 56.6207C62.3218 56.8274 62.4044 57.158 62.4044 57.6126C62.4044 58.0673 62.3218 58.3979 62.198 58.6045Z" fill="white"/>
</svg>
