<svg width="242" height="52" viewBox="0 0 242 52" fill="none" xmlns="http://www.w3.org/2000/svg">
<path d="M26.7983 51.0511L28.4003 50.6734L29.2744 49.5976L26.7983 49.4707V51.0511Z" fill="white"/>
<path d="M26.8013 46.0861V47.2133C26.8049 47.4893 26.865 47.7618 26.9779 48.0141C27.0892 48.2621 27.2713 48.4722 27.5018 48.6184C27.7333 48.7511 27.9959 48.8209 28.2632 48.8209C28.5305 48.8209 28.7931 48.7511 29.0246 48.6184C29.2558 48.473 29.4381 48.2626 29.5484 48.0141C29.673 47.7199 29.7371 47.404 29.7371 47.0849C29.7371 46.7657 29.673 46.4498 29.5484 46.1556C29.4869 46.0261 29.4069 45.906 29.3109 45.7991L29.8926 45.7296V46.1466H30.5017V48.7514H31.4489V45.4304L32.058 44.7595L26.8013 44.5027V46.0861ZM28.6774 47.8025C28.6409 47.8722 28.5858 47.9307 28.5181 47.9714C28.4504 48.0122 28.3728 48.0338 28.2936 48.0338C28.2145 48.0338 28.1368 48.0122 28.0691 47.9714C28.0015 47.9307 27.9464 47.8722 27.9099 47.8025C27.719 47.3345 27.719 46.8111 27.9099 46.343C27.9464 46.2733 28.0015 46.2149 28.0691 46.1741C28.1368 46.1333 28.2145 46.1118 28.2936 46.1118C28.3728 46.1118 28.4504 46.1333 28.5181 46.1741C28.5858 46.2149 28.6409 46.2733 28.6774 46.343C28.8642 46.8119 28.8642 47.3337 28.6774 47.8025Z" fill="white"/>
<path d="M32.7009 4.23059C31.5466 3.29482 30.2688 2.52009 28.903 1.92794C25.9914 0.642647 22.5711 0 18.6423 0H0V7.06509H18.2555C21.9224 7.06509 24.7061 7.83264 26.6066 9.36774C28.2299 10.6853 29.1162 12.5195 29.3476 14.8071L26.8015 14.6862V16.0914V17.3515C26.7943 17.6717 26.8588 17.9896 26.9903 18.2822C27.102 18.5299 27.2841 18.7399 27.5142 18.8866C27.7457 19.0247 28.0115 19.0958 28.2817 19.0921C28.5472 19.0965 28.8088 19.0275 29.037 18.8926C28.9544 19.1899 28.8527 19.4816 28.7324 19.7659L26.8015 19.6571V22.41C26.7314 22.4705 26.6827 22.549 26.6096 22.6095C24.7487 24.1204 22.0412 24.8789 18.4717 24.9091V15.209H0V44.9591H8.41506V31.9863H15.5601V52H18.4687V31.9863H18.6423C21.4052 32.02 24.157 31.6327 26.8015 30.838V31.5149V32.2129C26.7943 32.5332 26.8588 32.8511 26.9903 33.1437C27.102 33.3913 27.2841 33.6014 27.5142 33.748C27.7457 33.8806 28.0083 33.9505 28.2756 33.9505C28.5429 33.9505 28.8055 33.8806 29.037 33.748C29.2678 33.6022 29.45 33.3919 29.5608 33.1437C29.6848 32.8488 29.7486 32.5324 29.7486 32.2129C29.7486 31.8934 29.6848 31.5771 29.5608 31.2822L29.905 31.252V31.2731H30.5141V33.878H31.4613V31.1251L32.308 31.0556C32.2496 31.1279 32.1986 31.2059 32.1557 31.2882C32.0317 31.5831 31.9679 31.8995 31.9679 32.219C31.9679 32.5385 32.0317 32.8548 32.1557 33.1497C32.2665 33.398 32.4487 33.6082 32.6795 33.7541C32.911 33.8867 33.1736 33.9565 33.4409 33.9565C33.7083 33.9565 33.9709 33.8867 34.2024 33.7541C34.4332 33.6082 34.6154 33.398 34.7262 33.1497C34.8502 32.8548 34.914 32.5385 34.914 32.219C34.914 31.8995 34.8502 31.5831 34.7262 31.2882C34.6507 31.134 34.5475 30.9947 34.4216 30.8773L35.0704 30.8229V31.2792H35.6795V33.884H36.6297V30.6839L38.1525 30.5539C37.9689 30.6066 37.7996 30.6994 37.6568 30.8254C37.514 30.9514 37.4013 31.1074 37.3272 31.2822C37.2032 31.5771 37.1393 31.8934 37.1393 32.2129C37.1393 32.5324 37.2032 32.8488 37.3272 33.1437C37.438 33.3919 37.6202 33.6022 37.851 33.748C38.0825 33.8806 38.3451 33.9505 38.6124 33.9505C38.8797 33.9505 39.1423 33.8806 39.3738 33.748C39.6046 33.6022 39.7869 33.3919 39.8977 33.1437C40.0216 32.8488 40.0855 32.5324 40.0855 32.2129C40.0855 31.8934 40.0216 31.5771 39.8977 31.2822C39.7873 31.0336 39.605 30.8233 39.3738 30.6778C39.193 30.5744 38.9911 30.5124 38.783 30.4965L39.0479 30.4723L39.7545 30.2457L29.5425 29.732C30.0401 29.4873 30.525 29.218 30.9953 28.9252H31.507V28.5988C31.7384 28.4447 31.9577 28.2966 32.177 28.1153C32.1833 28.14 32.1914 28.1643 32.2014 28.1878C32.3117 28.4364 32.494 28.6468 32.7252 28.7922C32.9567 28.9248 33.2193 28.9946 33.4866 28.9946C33.7539 28.9946 34.0165 28.9248 34.248 28.7922C34.4792 28.6468 34.6616 28.4364 34.7719 28.1878C34.9051 27.8958 34.9697 27.5775 34.9607 27.2571C34.9583 27.1559 34.9492 27.0549 34.9333 26.9549C34.9333 26.9005 34.9333 26.8401 34.9333 26.7887L35.7526 26.6467V28.9191H36.7028V26.4895L37.382 26.3717C37.3188 26.5168 37.2738 26.669 37.248 26.825C37.2219 26.9676 37.2086 27.1122 37.2084 27.2571C37.1994 27.5775 37.264 27.8958 37.3972 28.1878C37.5075 28.4364 37.6899 28.6468 37.9211 28.7922C38.1526 28.9248 38.4152 28.9946 38.6825 28.9946C38.9498 28.9946 39.2124 28.9248 39.4439 28.7922C39.675 28.6468 39.8574 28.4364 39.9677 28.1878C40.1009 27.8958 40.1655 27.5775 40.1565 27.2571C40.1572 27.053 40.1305 26.8498 40.0774 26.6527C40.0514 26.5397 40.0147 26.4294 39.9677 26.3233C39.9056 26.1908 39.8234 26.0686 39.7241 25.9607L40.3119 25.858V26.3203H40.921V28.9252H41.8712V25.6011L42.4469 25.4258L35.1891 25.0511C35.3231 24.8638 35.4785 24.6976 35.6033 24.5042C35.7282 24.3108 35.8196 24.1506 35.9079 23.9693H36.6724V22.3617C36.7394 22.2015 36.8064 22.0384 36.8703 21.8722C36.9343 21.7059 36.98 21.57 37.0378 21.4038L37.3637 21.3675C37.2928 21.5212 37.2436 21.6839 37.2175 21.851C37.1914 21.9966 37.1782 22.1443 37.1779 22.2922C37.169 22.6126 37.2336 22.9309 37.3668 23.2229C37.4779 23.471 37.66 23.6812 37.8906 23.8273C38.1227 23.9582 38.3851 24.027 38.652 24.027C38.919 24.027 39.1813 23.9582 39.4134 23.8273C39.644 23.6812 39.8262 23.471 39.9373 23.2229C40.0705 22.9309 40.135 22.6126 40.1261 22.2922C40.1251 22.0881 40.0975 21.8849 40.0439 21.6878C40.0185 21.577 39.9828 21.4688 39.9373 21.3645C39.8913 21.2788 39.8383 21.1969 39.7789 21.1197L40.2814 21.0683V21.3705H40.8905V23.9723H41.8408V20.9142L43.0438 20.7903C42.8213 20.9322 42.6447 21.1347 42.5352 21.3735C42.5117 21.4319 42.4914 21.4914 42.4743 21.5518C42.3884 21.7935 42.3451 22.048 42.3463 22.3043C42.3374 22.6247 42.402 22.943 42.5352 23.235C42.6463 23.4831 42.8285 23.6933 43.059 23.8394C43.1173 23.8682 43.1773 23.8934 43.2387 23.9149C43.4239 23.9966 43.6239 24.0398 43.8265 24.0418C44.0954 24.0468 44.3603 23.9766 44.591 23.8394C44.8207 23.6923 45.0027 23.4824 45.1148 23.235C45.2388 22.9401 45.3026 22.6238 45.3026 22.3043C45.3026 21.9848 45.2388 21.6684 45.1148 21.3735C45.0018 21.1267 44.82 20.917 44.591 20.7692C44.5018 20.7207 44.4079 20.6812 44.3108 20.6513L45.0509 20.5758L37.3911 20.189C37.5099 19.7085 37.6013 19.2129 37.6744 18.7083C37.7335 18.7692 37.7988 18.8239 37.8693 18.8715C38.1008 19.0041 38.3634 19.0739 38.6307 19.0739C38.898 19.0739 39.1606 19.0041 39.3921 18.8715C39.6229 18.7256 39.8051 18.5153 39.9159 18.2671C40.0399 17.9722 40.1038 17.6559 40.1038 17.3364C40.1038 17.0168 40.0399 16.7005 39.9159 16.4056C39.866 16.2968 39.8015 16.1951 39.7241 16.1034L40.2601 16.0793V16.3815H40.8692V18.9863H41.8195V16.0158L42.855 15.9675C42.7132 16.092 42.5973 16.243 42.5139 16.4117C42.3899 16.7066 42.326 17.0229 42.326 17.3424C42.326 17.6619 42.3899 17.9782 42.5139 18.2731C42.6246 18.5214 42.8069 18.7316 43.0377 18.8775C43.2692 19.0101 43.5318 19.0799 43.7991 19.0799C44.0664 19.0799 44.329 19.0101 44.5605 18.8775C44.7906 18.7308 44.9727 18.5208 45.0844 18.2731C45.2083 17.9782 45.2722 17.6619 45.2722 17.3424C45.2722 17.0229 45.2083 16.7066 45.0844 16.4117C44.9834 16.2002 44.8305 16.0173 44.6397 15.8798L45.4285 15.8436V16.4026H46.0376V19.0074H46.9879V15.7771L47.6427 15.7438L47.064 15.7136L46.5371 15.6894L37.8906 15.2513C37.781 12.2748 37.0409 9.66388 35.6064 7.45188C35.5181 7.3159 35.4054 7.20107 35.3018 7.06811H47.8163V15.2271L50 11.0962V4.23059H32.7009ZM33.8643 32.9382C33.8278 33.0079 33.7727 33.0663 33.705 33.1071C33.6374 33.1478 33.5597 33.1694 33.4805 33.1694C33.4014 33.1694 33.3237 33.1478 33.2561 33.1071C33.1884 33.0663 33.1333 33.0079 33.0968 32.9382C32.9061 32.469 32.9061 31.9448 33.0968 31.4756C33.1333 31.4059 33.1884 31.3475 33.2561 31.3067C33.3237 31.2659 33.4014 31.2444 33.4805 31.2444C33.5597 31.2444 33.6374 31.2659 33.705 31.3067C33.7727 31.3475 33.8278 31.4059 33.8643 31.4756C34.051 31.9455 34.051 32.4682 33.8643 32.9382ZM39.0419 31.4756C39.2285 31.9455 39.2285 32.4682 39.0419 32.9382C39.0053 33.0079 38.9503 33.0663 38.8826 33.1071C38.8149 33.1478 38.7373 33.1694 38.6581 33.1694C38.5789 33.1694 38.5013 33.1478 38.4336 33.1071C38.366 33.0663 38.3109 33.0079 38.2744 32.9382C38.0836 32.469 38.0836 31.9448 38.2744 31.4756C38.3109 31.4059 38.366 31.3475 38.4336 31.3067C38.5013 31.2659 38.5789 31.2444 38.6581 31.2444C38.7373 31.2444 38.8149 31.2659 38.8826 31.3067C38.9503 31.3475 39.0053 31.4059 39.0419 31.4756ZM39.1819 27.245C39.2 27.4967 39.1517 27.7487 39.0419 27.9763C39.0053 28.046 38.9503 28.1044 38.8826 28.1452C38.8149 28.186 38.7373 28.2075 38.6581 28.2075C38.5789 28.2075 38.5013 28.186 38.4336 28.1452C38.366 28.1044 38.3109 28.046 38.2744 27.9763C38.1633 27.7491 38.1139 27.497 38.1312 27.245C38.1294 27.0802 38.1478 26.9158 38.186 26.7555C38.2036 26.6721 38.2334 26.5916 38.2744 26.5167C38.3109 26.447 38.366 26.3886 38.4336 26.3478C38.5013 26.3071 38.5789 26.2855 38.6581 26.2855C38.7373 26.2855 38.8149 26.3071 38.8826 26.3478C38.9503 26.3886 39.0053 26.447 39.0419 26.5167C39.0696 26.5758 39.091 26.6376 39.1058 26.7011C39.1647 26.8806 39.1945 27.0683 39.1941 27.2571L39.1819 27.245ZM39.1819 22.2922C39.1996 22.5439 39.1513 22.7958 39.0419 23.0235C39.0053 23.0932 38.9503 23.1516 38.8826 23.1924C38.8149 23.2331 38.7373 23.2547 38.6581 23.2547C38.5789 23.2547 38.5013 23.2331 38.4336 23.1924C38.366 23.1516 38.3109 23.0932 38.2744 23.0235C38.1636 22.7961 38.1142 22.5441 38.1312 22.2922C38.1299 22.1243 38.1494 21.9568 38.1891 21.7936C38.2062 21.7124 38.2349 21.634 38.2744 21.5609C38.3109 21.4912 38.366 21.4328 38.4336 21.392C38.5013 21.3512 38.5789 21.3297 38.6581 21.3297C38.7373 21.3297 38.8149 21.3512 38.8826 21.392C38.9503 21.4328 39.0053 21.4912 39.0419 21.5609C39.0685 21.618 39.0889 21.6778 39.1028 21.7392C39.1648 21.9212 39.1957 22.1122 39.1941 22.3043L39.1819 22.2922ZM44.2285 23.0235C44.1954 23.0943 44.1432 23.1547 44.0776 23.1979C44.012 23.2411 43.9356 23.2655 43.857 23.2682C43.7833 23.2688 43.7108 23.2501 43.6468 23.2139C43.575 23.1699 43.5145 23.1099 43.4702 23.0386C43.2835 22.5687 43.2835 22.0459 43.4702 21.576C43.4945 21.5459 43.522 21.5185 43.5524 21.4944C43.5894 21.4494 43.6357 21.4128 43.6883 21.3872C43.7409 21.3617 43.7984 21.3477 43.857 21.3463C43.9574 21.3485 44.0532 21.3885 44.125 21.4582C44.1686 21.4913 44.2066 21.5311 44.2377 21.576C44.2968 21.6849 44.335 21.8038 44.3504 21.9265C44.3709 22.0524 44.3811 22.1798 44.3808 22.3073C44.3982 22.558 44.35 22.8089 44.2407 23.0356L44.2285 23.0235ZM28.6624 31.4847C28.849 31.9546 28.849 32.4773 28.6624 32.9472C28.6259 33.0169 28.5708 33.0754 28.5031 33.1161C28.4354 33.1569 28.3578 33.1785 28.2786 33.1785C28.1994 33.1785 28.1218 33.1569 28.0541 33.1161C27.9865 33.0754 27.9314 33.0169 27.8949 32.9472C27.7042 32.4781 27.7042 31.9538 27.8949 31.4847C27.9101 31.4544 27.9375 31.4424 27.9558 31.4212L28.5649 31.3698C28.6064 31.4019 28.6433 31.4396 28.6745 31.4816L28.6624 31.4847ZM33.9739 27.0214C33.9739 27.1 33.9922 27.1695 33.9922 27.2601C34.0103 27.5118 33.962 27.7638 33.8521 27.9914C33.8156 28.0611 33.7605 28.1195 33.6928 28.1603C33.6252 28.2011 33.5475 28.2226 33.4684 28.2226C33.3892 28.2226 33.3115 28.2011 33.2439 28.1603C33.1762 28.1195 33.1211 28.0611 33.0846 27.9914C33.0035 27.8277 32.9608 27.648 32.9597 27.4656C33.1181 27.3296 33.2826 27.1967 33.4318 27.0516L33.9678 26.9609C33.9831 26.9761 33.9831 26.9972 33.9861 27.0184L33.9739 27.0214ZM44.2285 18.0858C44.1921 18.1547 44.1374 18.2125 44.0703 18.253C44.0032 18.2934 43.9263 18.315 43.8478 18.3154C43.7685 18.3151 43.6908 18.2937 43.6227 18.2533C43.5546 18.2128 43.4988 18.155 43.461 18.0858C43.3516 17.8581 43.3033 17.6062 43.321 17.3545C43.3029 17.1028 43.3512 16.8508 43.461 16.6232C43.4983 16.5536 43.554 16.4953 43.6222 16.4549C43.6903 16.4144 43.7684 16.3932 43.8478 16.3935C43.9265 16.3933 44.0036 16.4146 44.0708 16.4551C44.138 16.4956 44.1926 16.5538 44.2285 16.6232C44.3396 16.8504 44.389 17.1025 44.3717 17.3545C44.3919 17.6044 44.3468 17.8552 44.2407 18.0828L44.2285 18.0858ZM28.6624 18.0858C28.6259 18.1555 28.5708 18.2139 28.5031 18.2547C28.4354 18.2954 28.3578 18.317 28.2786 18.317C28.1994 18.317 28.1218 18.2954 28.0541 18.2547C27.9865 18.2139 27.9314 18.1555 27.8949 18.0858C27.7841 17.8584 27.7347 17.6064 27.7517 17.3545C27.7425 17.1324 27.7809 16.911 27.8644 16.7048L28.6745 16.6655C28.7717 16.8818 28.8155 17.118 28.8025 17.3545C28.8234 17.6041 28.7793 17.8549 28.6745 18.0828L28.6624 18.0858ZM39.0419 18.0858C39.0053 18.1555 38.9503 18.2139 38.8826 18.2547C38.8149 18.2954 38.7373 18.317 38.6581 18.317C38.5789 18.317 38.5013 18.2954 38.4336 18.2547C38.366 18.2139 38.3109 18.1555 38.2744 18.0858C38.1636 17.8584 38.1142 17.6064 38.1312 17.3545C38.1139 17.1025 38.1633 16.8504 38.2744 16.6232C38.3109 16.5535 38.366 16.4951 38.4336 16.4543C38.5013 16.4135 38.5789 16.392 38.6581 16.392C38.7373 16.392 38.8149 16.4135 38.8826 16.4543C38.9503 16.4951 39.0053 16.5535 39.0419 16.6232C39.1517 16.8508 39.2 17.1028 39.1819 17.3545C39.2029 17.6041 39.1588 17.8549 39.054 18.0828L39.0419 18.0858Z" fill="white"/>
<path d="M26.8014 36.1625V37.1688C26.7939 37.4891 26.8584 37.807 26.9902 38.0995C27.1024 38.3469 27.2843 38.5568 27.514 38.7039C27.7461 38.8348 28.0085 38.9036 28.2754 38.9036C28.5424 38.9036 28.8048 38.8348 29.0369 38.7039C29.2674 38.5578 29.4496 38.3476 29.5607 38.0995C29.6847 37.8046 29.7485 37.4883 29.7485 37.1688C29.7485 36.8493 29.6847 36.5329 29.5607 36.2381C29.5074 36.1304 29.442 36.029 29.3658 35.9359L29.9049 35.8875V36.229H30.514V38.8308H31.4612V35.7516L32.6794 35.6458C32.452 35.793 32.273 36.0031 32.1647 36.2502C32.0407 36.545 31.9769 36.8614 31.9769 37.1809C31.9769 37.5004 32.0407 37.8167 32.1647 38.1116C32.2758 38.3597 32.458 38.5699 32.6886 38.716C32.9206 38.8468 33.183 38.9156 33.45 38.9156C33.7169 38.9156 33.9793 38.8468 34.2114 38.716C34.4419 38.5699 34.6241 38.3597 34.7352 38.1116C34.8592 37.8167 34.923 37.5004 34.923 37.1809C34.923 36.8614 34.8592 36.545 34.7352 36.2502C34.6241 36.0021 34.4419 35.7919 34.2114 35.6458C34.1327 35.6036 34.0501 35.5692 33.9647 35.543L36.7453 35.2983L37.1474 35.0988L26.8014 34.564V36.1625ZM33.0997 36.4345C33.1362 36.3648 33.1913 36.3064 33.259 36.2656C33.3266 36.2248 33.4043 36.2033 33.4835 36.2033C33.5626 36.2033 33.6403 36.2248 33.708 36.2656C33.7756 36.3064 33.8307 36.3648 33.8672 36.4345C34.0539 36.9044 34.0539 37.4271 33.8672 37.8971C33.8307 37.9668 33.7756 38.0252 33.708 38.066C33.6403 38.1067 33.5626 38.1283 33.4835 38.1283C33.4043 38.1283 33.3266 38.1067 33.259 38.066C33.1913 38.0252 33.1362 37.9668 33.0997 37.8971C32.909 37.4279 32.909 36.9037 33.0997 36.4345ZM28.2937 36.2048C28.3728 36.2043 28.4505 36.2255 28.5182 36.2661C28.5859 36.3066 28.641 36.3649 28.6775 36.4345C28.8641 36.9044 28.8641 37.4271 28.6775 37.8971C28.641 37.9668 28.5859 38.0252 28.5182 38.066C28.4505 38.1067 28.3729 38.1283 28.2937 38.1283C28.2146 38.1283 28.1369 38.1067 28.0692 38.066C28.0016 38.0252 27.9465 37.9668 27.91 37.8971C27.7193 37.4279 27.7193 36.9037 27.91 36.4345C27.9462 36.3653 28.0008 36.3073 28.068 36.2668C28.1351 36.2263 28.2121 36.2049 28.2907 36.2048H28.2937Z" fill="white"/>
<path d="M35.1128 36.229H35.7341V38.8308H36.6843V35.5007L35.1128 35.7123V36.229Z" fill="white"/>
<path d="M34.2449 40.5926C34.1495 40.5356 34.0471 40.4909 33.9403 40.4596L34.5494 39.9247L26.8014 39.5349V42.1186C26.7939 42.4389 26.8584 42.7568 26.9902 43.0493C27.1014 43.2973 27.2836 43.5074 27.514 43.6537C27.7455 43.7863 28.0081 43.8561 28.2754 43.8561C28.5428 43.8561 28.8054 43.7863 29.0369 43.6537C29.268 43.5083 29.4504 43.2979 29.5607 43.0493C29.6847 42.7544 29.7485 42.4381 29.7485 42.1186C29.7485 41.7991 29.6847 41.4827 29.5607 41.1879C29.5074 41.0802 29.442 40.9788 29.3658 40.8857L29.9049 40.8373V41.1788H30.514V43.7806H31.4612V40.6953L32.6977 40.5835H32.6794C32.4486 40.7293 32.2664 40.9396 32.1556 41.1879C32.0316 41.4827 31.9678 41.7991 31.9678 42.1186C31.9678 42.4381 32.0316 42.7544 32.1556 43.0493C32.2659 43.2979 32.4482 43.5083 32.6794 43.6537C32.9109 43.7863 33.1735 43.8561 33.4408 43.8561C33.7081 43.8561 33.9707 43.7863 34.2022 43.6537C34.4334 43.5083 34.6158 43.2979 34.7261 43.0493C34.8501 42.7544 34.9139 42.4381 34.9139 42.1186C34.9139 41.7991 34.8501 41.4827 34.7261 41.1879C34.6254 40.9484 34.4586 40.7421 34.2449 40.5926ZM28.6744 42.8499C28.6379 42.9196 28.5828 42.978 28.5152 43.0188C28.4475 43.0595 28.3698 43.0811 28.2907 43.0811C28.2115 43.0811 28.1339 43.0595 28.0662 43.0188C27.9985 42.978 27.9434 42.9196 27.9069 42.8499C27.7162 42.3807 27.7162 41.8565 27.9069 41.3873C27.9434 41.3176 27.9985 41.2592 28.0662 41.2184C28.1339 41.1776 28.2115 41.1561 28.2907 41.1561C28.3698 41.1561 28.4475 41.1776 28.5152 41.2184C28.5828 41.2592 28.6379 41.3176 28.6744 41.3873C28.8611 41.8572 28.8611 42.3799 28.6744 42.8499ZM33.852 42.8499C33.8155 42.9196 33.7604 42.978 33.6927 43.0188C33.6251 43.0595 33.5474 43.0811 33.4682 43.0811C33.3891 43.0811 33.3114 43.0595 33.2438 43.0188C33.1761 42.978 33.121 42.9196 33.0845 42.8499C32.8938 42.3807 32.8938 41.8565 33.0845 41.3873C33.121 41.3176 33.1761 41.2592 33.2438 41.2184C33.3114 41.1776 33.3891 41.1561 33.4682 41.1561C33.5474 41.1561 33.6251 41.1776 33.6927 41.2184C33.7604 41.2592 33.8155 41.3176 33.852 41.3873C34.0387 41.8572 34.0387 42.3799 33.852 42.8499Z" fill="white"/>
<g clip-path="url(#clip0)">
<path d="M74.7411 17.1478C75.994 17.7123 77.0596 18.6434 77.8068 19.8264C78.5442 21.0273 78.9231 22.4262 78.8961 23.8483C78.9315 25.2693 78.5578 26.6692 77.8224 27.8703C77.0672 29.0324 76.0024 29.9433 74.7567 30.4926C73.2821 31.1414 71.6903 31.4568 70.0881 31.4176H66.6101V36.7185H61V16.2308H70.0648C71.6687 16.1919 73.2624 16.5044 74.7411 17.1478ZM72.3368 25.996C72.6266 25.7265 72.8555 25.3944 73.0075 25.0233C73.1594 24.6521 73.2306 24.251 73.2161 23.8483C73.2384 23.4328 73.1712 23.0173 73.0191 22.6319C72.867 22.2465 72.634 21.901 72.3368 21.6202C71.5899 21.0365 70.6644 20.7509 69.7302 20.8158H66.6178V26.8246H69.7302C70.663 26.8881 71.5872 26.6058 72.3368 26.0282V25.996Z" fill="white"/>
<path d="M93.5866 22.3922C94.9301 23.5988 95.6018 25.4409 95.6018 27.9184V36.7184H90.5676V34.6833C89.7947 36.2277 88.2826 36.9999 86.0313 36.9999C84.9602 37.0305 83.8962 36.8105 82.9189 36.3564C82.1105 35.9847 81.4239 35.3783 80.9426 34.6109C80.4954 33.8594 80.2659 32.9913 80.2812 32.1092C80.2557 31.422 80.4011 30.7394 80.7035 30.1268C81.0059 29.5142 81.4552 28.992 82.0085 28.6101C83.1238 27.7789 84.8434 27.3633 87.1673 27.3633H90.2252C90.1318 25.6849 89.0451 24.8456 86.965 24.8456C86.2047 24.849 85.4492 24.971 84.7241 25.2076C84.0209 25.4321 83.364 25.7894 82.7866 26.2613L80.9737 22.4807C81.929 21.8482 82.9815 21.3885 84.0861 21.1213C85.2823 20.7962 86.514 20.6313 87.7509 20.6306C90.303 20.6306 92.2482 21.2178 93.5866 22.3922ZM89.1981 33.0182C89.6772 32.6905 90.0361 32.2061 90.2174 31.6427V30.2833H87.8831C86.327 30.2833 85.5489 30.8222 85.5489 31.892C85.5418 32.1166 85.5869 32.3397 85.6803 32.5426C85.7737 32.7456 85.9127 32.9224 86.0858 33.0584C86.5143 33.378 87.0367 33.5343 87.5641 33.5008C88.1426 33.5078 88.7105 33.34 89.1981 33.0182Z" fill="white"/>
<path d="M109.6 36.0911C109.089 36.4132 108.528 36.6418 107.943 36.7667C107.258 36.9246 106.559 37.0028 105.857 37C104.189 37.1145 102.54 36.5713 101.243 35.4797C100.674 34.8863 100.235 34.1733 99.956 33.3892C99.6768 32.6051 99.5638 31.7681 99.6247 30.9349V25.6018H97.3838V21.4351H99.6247V17.3167H105.009V21.4351H108.526V25.5938H105.009V30.8706C104.983 31.357 105.139 31.8351 105.445 32.2059C105.598 32.3679 105.783 32.4946 105.986 32.5778C106.19 32.6609 106.409 32.6987 106.628 32.6885C107.211 32.6986 107.784 32.5247 108.269 32.1898L109.6 36.0911Z" fill="white"/>
<path d="M121.956 36.0911C121.445 36.4132 120.884 36.6418 120.298 36.7667C119.614 36.9246 118.915 37.0028 118.213 37C116.545 37.1145 114.896 36.5713 113.599 35.4797C113.03 34.8863 112.591 34.1733 112.312 33.3892C112.033 32.6051 111.92 31.7681 111.981 30.9349V25.6018H109.74V21.4351H111.981V17.3167H117.365V21.4351H120.913V25.5938H117.365V30.8706C117.337 31.3597 117.493 31.841 117.801 32.2139C117.954 32.3759 118.138 32.5026 118.342 32.5858C118.546 32.669 118.765 32.7067 118.983 32.6965C119.567 32.7067 120.14 32.5327 120.625 32.1978L121.956 36.0911Z" fill="white"/>
<path d="M139.183 30.2029H128.018C128.219 30.9796 128.69 31.6524 129.34 32.0932C130.076 32.5587 130.929 32.7882 131.791 32.7528C132.443 32.7686 133.092 32.6595 133.705 32.4311C134.301 32.1761 134.85 31.8199 135.332 31.3773L138.164 34.426C136.67 36.142 134.489 37 131.62 37C129.983 37.0251 128.363 36.6531 126.889 35.9141C125.588 35.2697 124.491 34.2537 123.73 32.9861C122.977 31.7079 122.589 30.2355 122.61 28.7389C122.588 27.2593 122.965 25.8026 123.699 24.532C124.426 23.2915 125.471 22.2835 126.718 21.6201C128.037 20.9411 129.488 20.581 130.961 20.5671C132.435 20.5531 133.892 20.8857 135.223 21.5397C136.449 22.1804 137.474 23.1679 138.179 24.3872C138.933 25.723 139.31 27.2497 139.269 28.7953C139.269 28.7953 139.245 29.3261 139.183 30.2029ZM128.998 25.2801C128.418 25.7899 128.035 26.4977 127.916 27.275H134.203C134.089 26.5002 133.711 25.793 133.137 25.2801C132.554 24.7834 131.815 24.5232 131.06 24.5481C130.31 24.5271 129.577 24.7871 128.998 25.2801Z" fill="white"/>
<path d="M149.034 21.1375C149.995 20.774 151.014 20.602 152.037 20.6308V25.6341C151.632 25.5822 151.224 25.5527 150.815 25.5456C149.827 25.4847 148.856 25.8319 148.115 26.5109C147.766 26.9107 147.5 27.3805 147.334 27.8912C147.168 28.4018 147.106 28.9423 147.151 29.479V36.7185H141.766V20.856H146.894V22.7624C147.453 22.0323 148.192 21.4711 149.034 21.1375Z" fill="white"/>
<path d="M168.867 22.3522C170.034 23.5266 170.61 25.2882 170.61 27.6531V36.7186H165.264V28.5621C165.264 26.4171 164.424 25.3445 162.743 25.3445C162.324 25.319 161.905 25.3877 161.514 25.5461C161.123 25.7044 160.77 25.9485 160.479 26.2615C159.871 27.0594 159.574 28.0638 159.647 29.0769V36.7186H154.262V20.8561H159.39V22.5855C160 21.9415 160.734 21.4373 161.545 21.1054C162.414 20.7602 163.338 20.5883 164.268 20.5986C165.11 20.5573 165.95 20.6912 166.74 20.9924C167.53 21.2937 168.253 21.7561 168.867 22.3522Z" fill="white"/>
<path d="M178.492 20.8318H172.399V16.2307H190.163V20.8318H184.094V36.7185H178.492V20.8318Z" fill="white"/>
<path d="M206.037 30.2029H194.871C195.069 30.979 195.537 31.6521 196.186 32.0932C196.922 32.5578 197.775 32.7872 198.637 32.7528C199.289 32.7693 199.938 32.6602 200.551 32.4311C201.148 32.1744 201.7 31.8184 202.185 31.3773L205.017 34.426C203.523 36.1393 201.345 37 198.466 37C196.828 37.0242 195.208 36.6523 193.735 35.9141C192.429 35.2713 191.33 34.2522 190.571 32.9794C189.812 31.7065 189.424 30.234 189.455 28.7389C189.433 27.2581 189.813 25.8004 190.552 24.532C191.276 23.2918 192.318 22.2837 193.564 21.6201C194.883 20.9411 196.334 20.581 197.807 20.5671C199.28 20.5531 200.738 20.8857 202.068 21.5397C203.296 22.1821 204.323 23.169 205.033 24.3872C205.782 25.7245 206.159 27.2501 206.122 28.7953C206.122 28.7953 206.091 29.3261 206.037 30.2029ZM195.851 25.2801C195.278 25.793 194.9 26.5002 194.785 27.275H201.057C200.938 26.5015 200.561 25.7956 199.991 25.2801C199.405 24.7815 198.664 24.5212 197.905 24.5481C197.158 24.5291 196.429 24.7889 195.851 25.2801Z" fill="white"/>
<path d="M211.904 35.9141C210.604 35.2659 209.512 34.2446 208.759 32.9723C208.006 31.7 207.622 30.2303 207.655 28.739C207.619 27.2522 208.001 25.7866 208.756 24.52C209.51 23.2535 210.603 22.2405 211.904 21.6041C213.33 20.9175 214.891 20.5842 216.463 20.6307C218.038 20.589 219.594 20.9863 220.968 21.781C222.193 22.507 223.142 23.6415 223.661 24.9986L219.498 27.1945C219.252 26.5639 218.829 26.0235 218.285 25.6424C217.74 25.2612 217.098 25.0567 216.44 25.0549C215.996 25.0421 215.553 25.1241 215.141 25.2957C214.729 25.4673 214.355 25.7249 214.043 26.0523C213.714 26.4228 213.46 26.858 213.297 27.332C213.134 27.8061 213.065 28.3092 213.094 28.8114C213.063 29.3186 213.132 29.827 213.295 30.3065C213.458 30.786 213.712 31.2267 214.043 31.6026C214.352 31.9353 214.725 32.1974 215.138 32.372C215.55 32.5466 215.994 32.6297 216.44 32.6161C217.098 32.6143 217.74 32.4097 218.285 32.0286C218.829 31.6475 219.252 31.107 219.498 30.4764L223.661 32.6724C223.142 34.0295 222.193 35.164 220.968 35.89C219.596 36.6908 218.039 37.0912 216.463 37.0483C214.878 37.0502 213.315 36.6614 211.904 35.9141Z" fill="white"/>
<path d="M240.257 22.3521C241.416 23.5265 242 25.2881 242 27.653V36.7185H236.616V28.562C236.616 26.4169 235.775 25.3444 234.095 25.3444C233.682 25.3237 233.27 25.3948 232.886 25.553C232.502 25.7112 232.155 25.9528 231.869 26.2614C231.255 27.0562 230.954 28.0622 231.029 29.0768V36.7185H225.645V15H231.029V22.3199C231.627 21.7499 232.331 21.312 233.099 21.0329C233.921 20.7494 234.784 20.6134 235.651 20.6307C236.491 20.5858 237.331 20.7149 238.122 21.0105C238.913 21.3062 239.639 21.7623 240.257 22.3521Z" fill="white"/>
</g>
<defs>
<clipPath id="clip0">
<rect width="181" height="22" fill="white" transform="translate(61 15)"/>
</clipPath>
</defs>
</svg>
