<svg width="38" height="38" viewBox="0 0 38 38" fill="none" xmlns="http://www.w3.org/2000/svg">
<g clip-path="url(#clip0)">
<path d="M38 22.5626C38 21.611 37.6216 20.7243 36.9692 20.0704C37.7087 19.2613 38.0855 18.1767 37.9826 17.0478C37.7973 15.0354 35.9844 13.4584 33.8532 13.4584H24.073C24.5575 11.9874 25.3333 9.29106 25.3333 7.12506C25.3333 3.69081 22.4153 0.791748 20.5833 0.791748C18.9398 0.791748 17.7634 1.718 17.7143 1.756C17.5259 1.90644 17.4166 2.13444 17.4166 2.37506V7.74412L12.8551 17.6226L12.6666 17.7191V17.4167C12.6666 16.9797 12.3119 16.625 11.8749 16.625H3.95831C1.77494 16.6251 0 18.4 0 20.5834V33.2501C0 35.4335 1.77494 37.2084 3.95831 37.2084H8.70831C10.4199 37.2084 11.8829 36.1159 12.4339 34.5911C13.7513 35.2688 15.5246 35.6251 16.625 35.6251H31.1584C32.8827 35.6251 34.3916 34.4629 34.7463 32.8606C34.9283 32.0341 34.8223 31.2028 34.4613 30.4808C35.6298 29.8934 36.4167 28.6853 36.4167 27.3126C36.4167 26.7521 36.2884 26.2153 36.0462 25.7308C37.2147 25.1418 38 23.9353 38 22.5626ZM34.6608 24.5164C34.3552 24.5528 34.0971 24.7602 33.9989 25.0531C33.9024 25.3461 33.9831 25.6674 34.2079 25.8796C34.6101 26.2581 34.8334 26.7679 34.8334 27.3126C34.8334 28.3116 34.0781 29.1508 33.0791 29.2664C32.7735 29.3028 32.5154 29.5102 32.4173 29.8031C32.3207 30.0961 32.4015 30.4174 32.6263 30.6296C33.1472 31.1204 33.3562 31.8092 33.1995 32.5186C33.0047 33.4021 32.1465 34.0418 31.1585 34.0418H16.625C15.3393 34.0418 13.1828 33.4385 12.4355 32.6896C12.2091 32.4648 11.8671 32.3983 11.5726 32.5186C11.2765 32.6405 11.0833 32.9303 11.0833 33.2501C11.0833 34.5595 10.0177 35.6251 8.70831 35.6251H3.95831C2.64887 35.6251 1.58331 34.5595 1.58331 33.2501V20.5834C1.58331 19.2739 2.64887 18.2084 3.95831 18.2084H11.0833V19.0001C11.0833 19.274 11.2258 19.5289 11.4601 19.6746C11.6913 19.8139 11.9826 19.8281 12.2296 19.7078L13.8129 18.9161C13.9729 18.8369 14.1011 18.7039 14.1771 18.5409L18.9271 8.24918C18.9746 8.14468 18.9999 8.03068 18.9999 7.91668V2.80412C19.3293 2.62206 19.9009 2.37506 20.5833 2.37506C21.451 2.37506 23.75 4.53156 23.75 7.12506C23.75 9.91175 22.2332 13.9286 22.2189 13.9683C22.1271 14.2105 22.1587 14.4844 22.306 14.6998C22.4548 14.9135 22.6987 15.0418 22.9583 15.0418H33.8532C35.1737 15.0418 36.2948 15.987 36.4056 17.1935C36.4895 18.096 36.0556 18.9542 35.2783 19.4339C35.036 19.5828 34.8919 19.8519 34.903 20.1385C34.9141 20.4251 35.0787 20.6816 35.3321 20.813C36.0018 21.1534 36.4166 21.8248 36.4166 22.5626C36.4167 23.5616 35.6614 24.4008 34.6608 24.5164Z" fill="#304FB2" stroke="#304FB2" stroke-width="0.3"/>
<path d="M11.8749 18.2083C11.4379 18.2083 11.0833 18.5629 11.0833 18.9999V33.25C11.0833 33.687 11.4379 34.0416 11.8749 34.0416C12.3119 34.0416 12.6666 33.687 12.6666 33.25V18.9999C12.6666 18.5629 12.3119 18.2083 11.8749 18.2083Z" fill="#304FB2"/>
</g>
<defs>
<clipPath id="clip0">
<rect width="38" height="38" fill="white"/>
</clipPath>
</defs>
</svg>
