<svg width="38" height="38" viewBox="0 0 38 38" fill="none" xmlns="http://www.w3.org/2000/svg">
<g clip-path="url(#clip0)">
<path d="M37.3498 18.464H34.135C35.4715 15.4298 35.327 12.9735 34.8213 11.3119C33.9544 8.34996 31.0285 5.13513 26.6939 5.13513C25.538 5.13513 24.3821 5.35186 23.1901 5.78532C21.1312 6.54388 19.7586 7.37468 19.1445 7.80814C18.5304 7.37468 17.1939 6.54388 15.0989 5.78532C13.9068 5.35186 12.7148 5.13513 11.5951 5.13513C7.26046 5.13513 4.3346 8.34996 3.46768 11.3119C2.96198 13.0819 2.78137 15.7549 4.47909 19.1142H0.577947C0.252852 19.1142 0 19.3671 0 19.6922C0 20.0173 0.252852 20.2701 0.577947 20.2701H5.1654C5.34601 20.5952 5.56274 20.9203 5.81559 21.2454C9.57224 26.6637 17.7357 32.5515 19.2167 32.9127C19.1933 32.9423 19.38 32.8866 19.3973 32.8766C20.6616 32.2625 28.5 27.2055 32.6179 21.2093C33.0152 20.6675 33.3403 20.1256 33.6293 19.5838H37.4221C37.7471 19.5838 38 19.331 38 19.0059C38 18.6808 37.6749 18.464 37.3498 18.464ZM31.5703 20.5952C27.7414 26.1941 20.6977 30.7093 19.1806 31.6846C17.6274 30.7093 10.6198 26.1579 6.75475 20.5952C6.68251 20.4868 6.61027 20.3785 6.53802 20.2701H11.8479C12.0646 20.2701 12.2814 20.1617 12.3897 19.945L14.8099 15.177L18.6027 24.8937C18.6749 25.1104 18.9278 25.2549 19.1445 25.2549C19.1445 25.2549 19.1445 25.2549 19.1806 25.2549C19.4335 25.2549 19.6502 25.0743 19.7224 24.8214L23.0456 13.4431L24.8156 19.1865C24.8878 19.4032 25.0684 19.5477 25.2852 19.5838C25.5019 19.6199 25.7186 19.5116 25.8631 19.331L27.2719 17.272L28.4639 19.2948C28.5722 19.4754 28.7529 19.5838 28.9696 19.5838H32.2205C32.0038 19.945 31.7871 20.2701 31.5703 20.5952ZM32.8707 18.464H29.3308L27.8498 15.9355C27.7414 15.7549 27.5608 15.6465 27.3441 15.6465C27.1274 15.6465 26.9468 15.7188 26.8384 15.8994L25.6103 17.7055L23.6236 11.2397C23.5513 10.9868 23.2985 10.8424 23.0456 10.8062C22.7928 10.8062 22.5399 10.9868 22.4677 11.2397L19.1084 22.8348L15.4601 13.5154C15.3878 13.2986 15.1711 13.1541 14.9544 13.1541C14.7015 13.1541 14.5209 13.2625 14.4125 13.4792L11.5589 19.0781H5.81559C4.37072 16.4412 3.97338 13.9127 4.62357 11.637C5.38213 9.07239 7.87452 6.32715 11.6312 6.32715C12.6426 6.32715 13.6901 6.54388 14.7376 6.90509C17.3745 7.88038 18.7833 9.00015 18.8194 9.00015C19.0361 9.18076 19.3251 9.18076 19.5418 9.00015C19.5418 9.00015 20.9506 7.88038 23.6236 6.90509C24.6711 6.50776 25.7186 6.32715 26.73 6.32715C30.4506 6.32715 32.9791 9.07239 33.7376 11.637C34.3517 13.7321 34.0266 16.0439 32.8707 18.464Z" fill="#707070" stroke="#707070" stroke-width="0.8"/>
</g>
<defs>
<clipPath id="clip0">
<rect width="38" height="38" fill="white"/>
</clipPath>
</defs>
</svg>
