<svg width="30" height="30" viewBox="0 0 30 30" fill="none" xmlns="http://www.w3.org/2000/svg">
<g clip-path="url(#clip0)">
<path d="M29.6686 4.72849C29.225 4.28382 28.5064 4.28265 28.0613 4.72544L19.433 13.319L16.9394 10.8254C16.4954 10.3818 15.7765 10.3814 15.3326 10.8254L5.21896 20.9391C4.775 21.3826 4.775 22.1023 5.21896 22.5459C5.44056 22.7678 5.73148 22.8788 6.0224 22.8788C6.3129 22.8788 6.60423 22.7678 6.82577 22.5459L16.136 13.2361L18.6281 15.7277C19.0716 16.1713 19.7887 16.1717 20.2333 15.7296L29.6652 6.33565C30.1098 5.89286 30.1114 5.17316 29.6686 4.72849Z" fill="#707070"/>
<path d="M28.8257 26.3636H2.27273V2.50001C2.27273 1.87236 1.76402 1.36365 1.13636 1.36365C0.50871 1.36365 0 1.87236 0 2.50001V27.5C0 28.1276 0.50871 28.6363 1.13636 28.6363H28.8257C29.4534 28.6363 29.9621 28.1276 29.9621 27.5C29.9621 26.8723 29.4534 26.3636 28.8257 26.3636Z" fill="#707070"/>
<path d="M28.8636 4.35608H20.341C19.7133 4.35608 19.2046 4.86479 19.2046 5.49244C19.2046 6.1201 19.7133 6.62881 20.341 6.62881H27.7273V14.0155C27.7273 14.6428 28.236 15.1519 28.8637 15.1519C29.4913 15.1519 30 14.6428 30 14.0151V5.49244C30 4.86479 29.4913 4.35608 28.8636 4.35608Z" fill="#707070"/>
</g>
<defs>
<clipPath id="clip0">
<rect width="30" height="30" fill="white"/>
</clipPath>
</defs>
</svg>
