<svg width="37" height="37" viewBox="0 0 37 37" fill="none" xmlns="http://www.w3.org/2000/svg">
<path d="M7.01562 29.4375C7.84749 29.4375 8.65755 29.2568 9.4082 28.9094V34.6328H3.93945C3.56197 34.6328 3.25586 34.9389 3.25586 35.3164C3.25586 35.694 3.56197 36 3.93945 36H33.0605C33.438 36 33.7441 35.694 33.7441 35.3164C33.7441 34.9389 33.438 34.6328 33.0605 34.6328H27.5918V28.9094C28.3425 29.2568 29.1525 29.4375 29.9844 29.4375C33.2452 29.4375 36 26.7766 36 23.627C36 21.115 34.175 18.8134 31.6735 18.0667C31.5286 16.4861 30.5984 15.0732 29.2194 14.3099C29.5 13.5545 29.6426 12.7594 29.6426 11.9375C29.6426 11.3737 29.5735 10.8134 29.4372 10.2721C29.3449 9.90593 28.9732 9.68383 28.6073 9.77604C28.2413 9.86819 28.0192 10.2397 28.1113 10.6059C28.2202 11.0382 28.2754 11.4861 28.2754 11.9375C28.2754 12.5925 28.1625 13.2256 27.9403 13.827C27.6029 13.7526 27.2577 13.7148 26.9082 13.7148C24.4155 13.7148 22.362 15.6304 22.1425 18.0669C20.967 18.4178 19.9411 19.1122 19.1836 20.0104V14.4199L23.1006 12.5546C23.4414 12.3923 23.5862 11.9844 23.4239 11.6436C23.2615 11.3026 22.8535 11.1579 22.5128 11.3203L19.1836 12.9056V7.83594C19.1836 7.45839 18.8775 7.15234 18.5 7.15234C18.1225 7.15234 17.8164 7.45839 17.8164 7.83594V10.8548L14.4873 9.2695C14.1463 9.10729 13.7385 9.25187 13.5762 9.59277C13.4139 9.93361 13.5586 10.3416 13.8995 10.5039L17.8165 12.3691V20.0104C17.059 19.1122 16.033 18.4178 14.8576 18.0669C14.638 15.6304 12.5845 13.7148 10.0918 13.7148C9.74234 13.7148 9.39713 13.7526 9.05971 13.827C8.83747 13.2257 8.72461 12.5925 8.72461 11.9375C8.72461 9.23033 10.6762 6.96675 13.365 6.55522C13.6528 6.5112 13.8812 6.28972 13.9339 6.00336C14.3096 3.9644 16.3152 2.36719 18.5 2.36719C20.6848 2.36719 22.6904 3.9644 23.0661 6.00336C23.1188 6.28965 23.3472 6.5112 23.635 6.55522C23.9146 6.59802 24.1928 6.66296 24.4622 6.74813C24.8221 6.86216 25.2063 6.66269 25.3202 6.30271C25.4341 5.94279 25.2347 5.55861 24.8747 5.44473C24.6872 5.38539 24.4963 5.33392 24.3034 5.29078C23.6151 2.81419 21.2035 1 18.5 1C15.7965 1 13.3849 2.81426 12.6966 5.29078C9.60508 5.98415 7.35742 8.71791 7.35742 11.9375C7.35742 12.7594 7.49995 13.5545 7.78057 14.3098C6.40162 15.0731 5.47132 16.486 5.32646 18.0667C2.82499 18.8134 1 21.115 1 23.627C1 26.7766 3.75481 29.4375 7.01562 29.4375V29.4375ZM10.7754 28.9094C11.526 29.2568 12.3361 29.4375 13.168 29.4375C15.0169 29.4375 16.7028 28.5818 17.8164 27.2669V34.6328H10.7754V28.9094ZM19.1836 34.6328V27.2669C20.2972 28.5818 21.9831 29.4375 23.832 29.4375C24.6639 29.4375 25.474 29.2568 26.2246 28.9094V34.6328H19.1836ZM22.9516 19.2727C23.2823 19.2063 23.5505 18.9002 23.4904 18.4694C23.5069 16.5988 25.0338 15.082 26.9082 15.082C28.7962 15.082 30.3094 16.6113 30.326 18.4694C30.2664 18.897 30.5308 19.2057 30.8648 19.2727C33.013 19.7042 34.6328 21.5762 34.6328 23.627C34.6328 26.0355 32.504 28.0703 29.9844 28.0703C29.1366 28.0703 28.316 27.822 27.5918 27.3501V25.0748L31.3155 23.213C31.6532 23.0441 31.79 22.6335 31.6212 22.2958C31.4523 21.9581 31.0415 21.8212 30.7041 21.9901L27.5918 23.5463C27.5918 22.9706 27.5918 19.3769 27.5918 18.5C27.5918 18.1225 27.2857 17.8164 26.9082 17.8164C26.5307 17.8164 26.2246 18.1225 26.2246 18.5V20.9512L25.3408 20.0673C25.0738 19.8005 24.6411 19.8005 24.374 20.0673C24.107 20.3343 24.107 20.7671 24.374 21.0342L26.2246 22.8848V27.3501C25.5004 27.822 24.6798 28.0703 23.832 28.0703C21.3124 28.0703 19.1836 26.0355 19.1836 23.627C19.1836 21.5762 20.8034 19.7042 22.9516 19.2727V19.2727ZM6.13516 19.2727C6.46554 19.2064 6.73412 18.9009 6.67396 18.4694C6.69064 16.6112 8.20221 15.082 10.0918 15.082C11.9662 15.082 13.4931 16.5988 13.5096 18.4694C13.4499 18.8976 13.7152 19.2058 14.0484 19.2727C16.1966 19.7042 17.8164 21.5762 17.8164 23.627C17.8164 26.0355 15.6876 28.0703 13.168 28.0703C12.3202 28.0703 11.4996 27.822 10.7754 27.3501V26.9863L12.6259 25.1358C12.8929 24.8688 12.8929 24.436 12.6259 24.169C12.3589 23.9021 11.9262 23.9021 11.6591 24.169L10.7754 25.0527V20.5508C10.7754 20.1732 10.4693 19.8672 10.0918 19.8672C9.71432 19.8672 9.4082 20.1732 9.4082 20.5508V23.5463L6.29594 21.9902C5.95824 21.8213 5.54768 21.9582 5.37883 22.2959C5.20998 22.6336 5.34684 23.0442 5.6846 23.213L9.4082 25.0748V27.35C8.684 27.822 7.86342 28.0703 7.01562 28.0703C4.49597 28.0703 2.36719 26.0355 2.36719 23.627C2.36719 21.5762 3.98703 19.7042 6.13516 19.2727Z" fill="#304FB2" stroke="#304FB2" stroke-width="0.3"/>
<path d="M27.25 8.45117C27.6275 8.45117 27.9336 8.14512 27.9336 7.76758C27.9336 7.39004 27.6275 7.08398 27.25 7.08398C26.8725 7.08398 26.5664 7.39004 26.5664 7.76758C26.5664 8.14512 26.8725 8.45117 27.25 8.45117Z" fill="#304FB2" stroke="#304FB2" stroke-width="0.3"/>
</svg>
